<?xml version="1.0" encoding="utf-8"?><svg xmlns="http://www.w3.org/2000/svg" preserveAspectRatio="none" viewBox="0 0 500 4100"><style>.st0{fill:#333}.st1{fill:#fff}.st2{fill:#e60000}.st3{fill:#007c92}.st4{fill:#2e2e2e}</style><g id="grau"><path id="i-lrg.i-mdm.i-sml" d="M76.2 207.2H63.8c-1.2 0-2.1.9-2.1 2.1 0 1.2.9 2.1 2.1 2.1h12.5c1.1 0 2.1-.9 2.1-2v-.1c-.1-1.2-1-2.1-2.2-2.1zm27.1-45.9H36.7c-4.6 0-8.3 3.7-8.3 8.3v41.7c0 4.6 3.7 8.3 8.3 8.3h66.7c4.6 0 8.3-3.7 8.3-8.3v-41.6c0-4.6-3.8-8.4-8.4-8.4zm4.2 50c0 2.3-1.9 4.2-4.2 4.2H36.7c-2.3 0-4.2-1.9-4.2-4.2v-41.6c0-2.3 1.9-4.2 4.2-4.2h66.7c2.3 0 4.2 1.9 4.2 4.2l-.1 41.6z" class="st0"/><path id="i-lrg.i-mdm.i-sml-2" d="M36.7 288.3c.6 0 1.1-.2 1.5-.6 18-18.1 47.3-18.2 65.5-.2.8.8 2.1.8 2.9 0 .8-.8.8-2.1 0-2.9-19.8-19.7-51.7-19.6-71.4.1-.8.8-.8 2.1 0 2.9.4.5.9.7 1.5.7zM97 298c.8-.8.8-2.1 0-2.9-14.4-14.3-37.6-14.2-51.9.1-.8.8-.8 2.1 0 2.9.4.4.9.6 1.5.6s1.1-.2 1.5-.6c12.7-12.7 33.2-12.7 46-.1.8.8 2.1.8 2.9 0zm-41.7 7.4c-.8.8-.8 2.1 0 2.9.4.4.9.6 1.5.6s1.1-.2 1.5-.6c7-7 18.4-7.1 25.5-.1.8.8 2.1.8 2.9 0 .8-.8.8-2.1 0-2.9-8.7-8.6-22.7-8.6-31.4.1zM71 333.3c-2.4 0-4.4 2-4.4 4.4s2 4.4 4.4 4.4 4.4-2 4.4-4.4c0-2.4-2-4.4-4.4-4.4zm-.2 4.4c0-.1.1-.2.2-.2s.2.1.2.2-.1.2-.2.2-.2-.1-.2-.2zm32.8-16.6H38.4c-5 0-9.1 4.1-9.1 9.1v14c0 5 4.1 9.1 9.1 9.1h65.2c5 0 9.1-4.1 9.1-9.1v-14c0-5-4-9.1-9.1-9.1zm4.9 23c0 2.7-2.2 4.9-4.9 4.9H38.4c-2.7 0-4.9-2.2-4.9-4.9v-14c0-2.7 2.2-4.9 4.9-4.9h65.2c2.7 0 4.9 2.2 4.9 4.9v14z" class="st0"/><path id="i-lrg.i-mdm.i-sml-3" d="M79.2 428.7v12.9c0 1.2.9 2.1 2.1 2.1 1.2 0 2.1-.9 2.1-2.1v-4.4h3.3c1.2 0 2.1-.9 2.1-2.1s-.9-2.1-2.1-2.1h-3.3v-2.3h4.4c1.2 0 2.1-.9 2.1-2.1s-.9-2.1-2.1-2.1h-6.5c-1.2.1-2.1 1-2.1 2.2zm-5.4-.1c-2.9-2.6-7.1-2.1-7.5-2-1 .1-1.8 1-1.8 2.1v12.9c0 1 .8 1.9 1.8 2.1.4.1.9.1 1.3.1 2.3.1 4.5-.7 6.2-2.1 1.2-1 2.6-3 2.6-6.5.2-2.5-.8-4.9-2.6-6.6zm-2.8 9.9c-.7.6-1.5.9-2.4 1v-8.7c2.1.1 3.7 1.9 3.6 4v.4c.1 1.2-.3 2.4-1.2 3.3zm-15.3-11.9H52c-1.1 0-2.1.9-2.1 2v13c0 1.2.9 2.1 2.1 2.1 1.2 0 2.1-.9 2.1-2.1v-3.3h1.5c1.6.1 3.1-.5 4.3-1.5 1.2-1.2 1.8-2.8 1.7-4.4.1-1.6-.5-3.2-1.7-4.4-1.2-.9-2.7-1.4-4.2-1.4zm1.3 7.1c-.4.3-.8.4-1.3.4H54v-3.4h1.8c.4 0 .9.1 1.2.4.3.2.4.7.4 1.3s-.1 1.1-.4 1.3zm41.6-27.1c-.1-.2-.2-.5-.4-.7l-16.5-16.4c-.2-.2-.4-.3-.7-.4-.3-.1-.5-.2-.8-.2H49.5c-4.5 0-8.2 3.7-8.2 8.2v65.7c0 4.5 3.7 8.2 8.2 8.2h41c4.5 0 8.2-3.7 8.2-8.2v-55.4c.1-.3 0-.6-.1-.8zM82.3 396l9.3 9.3h-9.3V396zm12.3 66.8c0 2.3-1.8 4.1-4.1 4.1h-41c-2.3 0-4.1-1.8-4.1-4.1v-65.6c0-2.3 1.8-4.1 4.1-4.1h28.7v14.3c0 1.1.9 2.1 2 2.1h14.4v53.3z" class="st0"/><path id="i-lrg.i-mdm.i-sml-4" d="M76.2 579.2H63.7c-1.2 0-2.1.9-2.1 2.1 0 1.2.9 2.1 2.1 2.1h12.5c1.1 0 2.1-.9 2.1-2v-.1c0-1.2-.9-2.1-2.1-2.1zm10.4-70.9H53.2c-4.6 0-8.3 3.7-8.3 8.3v66.7c0 4.6 3.7 8.3 8.3 8.3h33.3c4.6 0 8.3-3.7 8.3-8.3v-66.6c.1-4.5-3.5-8.3-8-8.4h-.2zm4.2 75c0 2.3-1.9 4.2-4.2 4.2H53.2c-2.3 0-4.2-1.9-4.2-4.2v-66.6c0-2.3 1.9-4.2 4.2-4.2h33.3c2.3 0 4.2 1.9 4.2 4.2l.1 66.6z" class="st0"/><path id="i-lrg.i-mdm.i-sml-5" d="M53.3 663.8c0 1.1.9 2.1 2 2.1h29.3c1.2 0 2.1-.9 2.1-2.1 0-1.2-.9-2.1-2.1-2.1H55.4c-1.2 0-2.1.9-2.1 2.1zm31.3 10.4H55.4c-1.2 0-2.1.9-2.1 2.1 0 1.2.9 2.1 2.1 2.1h29.2c1.1 0 2.1-.9 2.1-2v-.1c0-1.2-.9-2.1-2.1-2.1zm0 12.5H55.4c-1.2 0-2.1.9-2.1 2.1 0 1.2.9 2.1 2.1 2.1h29.2c1.1 0 2.1-.9 2.1-2v-.1c0-1.2-.9-2.1-2.1-2.1zm14-41.1l-16.7-16.7c-.4-.4-.9-.6-1.5-.6H49.2c-4.6 0-8.3 3.7-8.3 8.3v66.7c0 4.6 3.7 8.3 8.3 8.3h41.7c4.6 0 8.3-3.7 8.3-8.3v-56.2c0-.6-.2-1.1-.6-1.5zm-16.1-10.2l9.6 9.6h-9.6v-9.6zM95 703.3c0 2.3-1.9 4.2-4.2 4.2H49.2c-2.3 0-4.2-1.9-4.2-4.2v-66.6c0-2.3 1.9-4.2 4.2-4.2h29.2v14.6c0 1.1.9 2.1 2 2.1H95v54.1z" class="st0"/><path id="i-lrg.i-mdm.i-sml-6" d="M65.8 812c-4.6 0-8.3 3.7-8.3 8.3 0 4.6 3.7 8.3 8.3 8.3s8.3-3.7 8.3-8.3c0-4.6-3.7-8.3-8.3-8.3zm0 12.5c-2.3 0-4.2-1.9-4.2-4.2 0-2.3 1.9-4.2 4.2-4.2s4.2 1.9 4.2 4.2c0 2.3-1.9 4.2-4.2 4.2zm25-12.5c-4.6 0-8.3 3.7-8.3 8.3 0 4.6 3.7 8.3 8.3 8.3s8.3-3.7 8.3-8.3c0-4.6-3.7-8.3-8.3-8.3zm0 12.5c-2.3 0-4.2-1.9-4.2-4.2 0-2.3 1.9-4.2 4.2-4.2s4.2 1.9 4.2 4.2c0 2.3-1.9 4.2-4.2 4.2zm20.5-61.6c-.4-.5-1-.9-1.7-.9H48.2l-2.3-6.9c-.3-.9-1.1-1.4-2-1.4H30.4c-1.2 0-2.1.9-2.1 2.1 0 1.2.9 2.1 2.1 2.1h12l2.2 6.8c0 .1 0 .1.1.2L57 802.3c.3.9 1.1 1.4 2 1.4h38.5c.9 0 1.7-.6 2-1.4l12-37.5c.3-.6.2-1.4-.2-1.9zm-15.2 36.6H60.6l-11-33.3h57.1l-10.6 33.3z" class="st0"/><path id="i-lrg.i-mdm.i-sml-7" d="M102.1 936.6c12.8-15.4 12.8-37.8 0-53.2v-.1c-.1-.1-.2-.1-.2-.2-7.2-8.4-17.3-13.6-28.3-14.6-.2 0-.4-.1-.6 0-1-.1-2-.2-3-.2s-2 .1-3 .2h-.6c-11 1-21.1 6.3-28.2 14.7l-.2.2v.1c-12.8 15.4-12.8 37.8 0 53.2 0 .1 0 .1.1.1 7.1 8.4 17.3 13.7 28.3 14.7.1 0 .3.1.4.1h.2c1 .1 2.1.2 3.1.2 1.1 0 2-.1 3.1-.2h.2c.1 0 .3 0 .4-.1 11-1 21.1-6.3 28.1-14.8.1 0 .1 0 .2-.1zm-29.7 10.8h-.3v-20.6c4.7.2 9.4 1.2 13.8 3-3.4 6.6-8 12.6-13.5 17.6zm-4.8 0c-5.5-5-10.1-11-13.5-17.6 4.4-1.8 9.1-2.8 13.8-3v20.6h-.3zm-35-35.3h12.5c.4 5.4 1.5 10.6 3.5 15.6-2.9 1.5-5.8 3.1-8.5 4.9-4.5-5.9-7.1-13.1-7.5-20.5zm7.5-24.7c2.7 1.8 5.5 3.5 8.4 4.9-2 5-3.2 10.2-3.5 15.6H32.6c.4-7.4 3-14.6 7.5-20.5zm27.5-14.8h.4v20.6c-4.8-.2-9.5-1.2-14-3 3.4-6.7 8-12.6 13.6-17.6zm4.8 0c5.6 5 10.2 10.9 13.6 17.6-4.4 1.8-9.1 2.8-13.9 3.1v-20.7h.3zm35 35.3H94.9c-.2-5.4-1.4-10.6-3.4-15.6 2.9-1.4 5.7-3.1 8.4-4.9 4.5 5.9 7.1 13.1 7.5 20.5zm-16.6 0H72.1v-10.5c5.4-.3 10.6-1.4 15.6-3.4 1.8 4.4 2.8 9.1 3.1 13.9zm-22.9-10.5v10.5H49.2c.2-4.8 1.3-9.5 3.1-13.9 5 2 10.2 3.1 15.6 3.4zm-18.7 14.7h18.7v10.5c-5.3.3-10.6 1.4-15.5 3.4a44 44 0 0 1-3.2-13.9zm22.9 10.5v-10.5h18.7a44 44 0 0 1-3.2 13.9c-4.9-2-10.2-3.1-15.5-3.4zm22.8-10.5h12.5c-.4 7.4-3 14.6-7.5 20.5-2.7-1.9-5.5-3.5-8.5-4.9 2.1-5 3.2-10.2 3.5-15.6zm2.3-27.9c-2.3 1.6-4.8 3-7.3 4.3-2.7-5.4-6.1-10.4-10.3-14.7 6.7 1.8 12.8 5.4 17.6 10.4zm-36.7-10.4c-4.1 4.4-7.6 9.3-10.3 14.7-2.6-1.3-5-2.7-7.4-4.3 4.8-5 10.9-8.6 17.7-10.4zm-17.7 62c2.4-1.6 4.9-3.1 7.5-4.3 2.7 5.4 6.2 10.4 10.3 14.8-6.8-1.8-13-5.4-17.8-10.5zm36.6 10.4c4.1-4.4 7.5-9.4 10.2-14.8 2.6 1.2 5.1 2.7 7.5 4.3-4.7 5.2-10.9 8.8-17.7 10.5z" class="st0"/><path id="i-lrg.i-mdm.i-sml-8" d="M70 1007c-8.6 0-11.9 6-12.5 9.3-.2 1.1.5 2.2 1.7 2.4 1.1.2 2.2-.5 2.4-1.7v-.1c0-.2 1.1-5.9 8.4-5.9 3-.1 5.7 1.8 6.8 4.6 1.2 2.8.8 6.1-1 7.8-2.1 2.2-3.9 4-5.2 5.2-1.7 1.7-2.7 4.1-2.7 6.5v4c0 1.2.9 2.1 2.1 2.1 1.2 0 2.1-.9 2.1-2.1v-4c0-1.3.5-2.6 1.5-3.5l5.3-5.3c2.9-3 3.7-8 1.8-12.4-1.8-4.2-6-7-10.7-6.9zm0-18.7c-23 0-41.7 18.7-41.7 41.7s18.7 41.7 41.7 41.7 41.7-18.7 41.7-41.7c0-23-18.7-41.7-41.7-41.7zm0 79.2c-20.7 0-37.5-16.8-37.5-37.5s16.8-37.5 37.5-37.5 37.5 16.8 37.5 37.5-16.8 37.5-37.5 37.5zm0-19.8c-1.7 0-3.1 1.4-3.1 3.1 0 1.7 1.4 3.1 3.1 3.1s3.1-1.4 3.1-3.1c0-1.7-1.4-3.1-3.1-3.1zm0 4.2c-.6 0-1-.4-1-1s.4-1 1-1c.5 0 1 .5 1 1 0 .6-.4 1-1 1z" class="st0"/><path id="i-lrg.i-mdm.i-sml-9" d="M58.8 1176.5l-.1-11.1c0-1.1-.9-2.1-2-2.1H54.4c-1.2 0-2.1 1-2.1 2.1 0 1.2.9 2.1 2.1 2.1h.1v9h-.1c-1.2 0-2.1 1-2.1 2.1 0 1.2.9 2.1 2.1 2.1h4.4c1.2 0 2.1-.9 2.1-2.1 0-1.1-.9-2.1-2.1-2.1zm39.5-68.2H66.7c-4.4 0-8 3.6-8 8v29.6c-.7-.1-1.4-.1-2.1-.1-12.6 0-22.9 10.2-22.9 22.9s10.2 22.9 22.9 22.9c4.7 0 9.4-1.5 13.2-4.2h28.4c4.4 0 8-3.6 8-8v-63.1c.1-4.4-3.4-7.9-7.8-8h-.1zm-29.8 75c-1.7 1.4-3.6 2.4-5.6 3.1-9.8 3.5-20.5-1.7-24-11.4-3.5-9.8 1.7-20.5 11.4-24 2-.7 4.1-1.1 6.3-1.1.7 0 1.4 0 2.1.1 1.4.2 2.8.5 4.2 1 9.8 3.5 14.9 14.3 11.4 24.1-1.1 3.2-3.2 6-5.8 8.2zm33.6-3.9c0 2.1-1.7 3.8-3.8 3.8H74.4c.9-1.2 1.8-2.4 2.5-3.7h11.6c1.2 0 2.1-1 2.1-2.1 0-1.2-.9-2.1-2.1-2.1h-9.8c.6-2.1 1-4.4 1-6.6 0-10.2-6.8-19.2-16.7-22v-30.4c0-2.1 1.7-3.8 3.8-3.8h31.5c2.1 0 3.8 1.7 3.8 3.8v63.1zm-46-17.6c1.4 0 2.6-1.2 2.6-2.6 0-1.4-1.2-2.6-2.6-2.6-1.4 0-2.6 1.2-2.6 2.6 0 1.4 1.2 2.6 2.6 2.6z" class="st0"/><path id="i-lrg.i-mdm.i-sml-10" d="M108.5 1269.1c-1-1.8-2.4-3.5-3.9-4.9-2.7-2.3-5.7-4.1-9-5.4.6-5.6-2.7-10.6-2.8-10.7-2-3.3-4.6-6.2-7.7-8.5-3.3-2.4-7-4.2-10.9-5.2-4.3-1.2-8.7-1.6-13.1-1.3-4.4.3-8.7 1.3-12.8 3-3.8 1.6-7.3 3.8-10.4 6.6-2.9 2.6-5.3 5.8-6.9 9.4-1.6 3.5-2.4 7.4-2.2 11.3.1 2.5.6 4.9 1.5 7.2.8 2.3 2 4.4 3.5 6.3 1.5 1.9 3.2 3.7 5.1 5.2 2 1.4 4.1 2.6 6.3 3.6-2 3.4-4.7 6.3-7.9 8.6-.8.5-1.1 1.4-.9 2.3.2.9.9 1.5 1.8 1.6 1 .1 2 .1 3 .1 1.9 0 3.9-.2 5.8-.5 2.1-.4 4.1-.9 6-1.7.1 0 2.3-.9 8.2-4.3 1.4 2 3.1 3.8 5.1 5.2 2.6 1.9 5.6 3.3 8.7 4.2 3.2.9 6.6 1.3 9.9 1.1 1 .7 2 1.3 3.1 1.9 1.6.8 3.2 1.5 4.9 2 2 .6 4 .9 6 1h1.2c1.9 0 3.8-.2 5.7-.6 1.1-.2 1.8-1.3 1.6-2.4-.1-.6-.5-1.1-1-1.4-1.6-1-4.8-3.5-5.7-5.7 1.3-.9 2.5-1.9 3.6-3 1.4-1.4 2.6-3 3.7-4.7 1-1.7 1.8-3.5 2.3-5.4 1.5-5 .8-10.4-1.8-14.9zm-56.9 23c-1.7.7-3.5 1.2-5.3 1.5l-2.1.3c2.4-2.4 4.3-5.3 5.7-8.4.4-1-.1-2.2-1.1-2.7-2.6-1.1-5-2.4-7.3-3.9-1.6-1.3-3.1-2.8-4.4-4.5-1.2-1.6-2.2-3.4-2.9-5.3-.7-1.9-1.1-3.9-1.2-5.9-.1-3.2.5-6.4 1.8-9.3 1.4-3.1 3.4-5.8 5.9-8 2.7-2.5 5.8-4.5 9.2-5.8 3.7-1.5 7.6-2.4 11.5-2.7 3.9-.3 7.9.1 11.7 1.2 3.5.9 6.7 2.5 9.6 4.6 2.7 1.9 5 4.4 6.6 7.3 1.3 2.2 2.1 4.7 2.2 7.3-2.7-.6-5.5-.8-8.3-.6-3.5.2-7 1-10.2 2.4-3 1.3-5.8 3.1-8.2 5.3-2.3 2.1-4.2 4.7-5.5 7.5-1.3 2.8-1.9 5.9-1.7 9 .1 2.4.6 4.7 1.6 6.8-2.4 1.5-5 2.8-7.6 3.9zm54.9-9.4c-.4 1.5-1 3-1.8 4.3-.9 1.4-1.9 2.7-3 3.9-1.2 1.2-2.6 2.3-4.1 3.2-.6.4-1 1.1-1 1.9.1 2.6 1.9 5 3.7 6.8h-1.1c-1.7-.1-3.4-.3-5-.8-1.4-.4-2.9-1-4.2-1.7-1.1-.6-2.2-1.2-3.2-1.9-.3-.3-.8-.4-1.2-.4h-.5c-3 .2-6.1-.1-9-.9-2.6-.7-5.2-1.9-7.4-3.5-2-1.5-3.7-3.4-5-5.5-1.2-2.1-1.9-4.5-2-6.9-.1-2.4.4-4.9 1.4-7.1 1.1-2.4 2.6-4.5 4.5-6.2 2.1-1.9 4.4-3.4 7-4.5 5.6-2.4 11.9-2.8 17.8-1.2l.8.2c.1 0 .1.1.2.1 3.1 1.2 5.9 2.8 8.4 4.9 1.2 1.1 2.2 2.4 3 3.9 2.1 3.4 2.7 7.5 1.7 11.4z" class="st0"/><path id="i-lrg.i-mdm.i-sml-11" d="M101.2 1368H90.3c-1.4 0-2.6-.5-3.6-1.5l-5.9-5.2a9.19 9.19 0 0 0-6.7-2.5h-8.6c-2.5 0-5 1-6.8 2.7l-5 5.2c-.7.9-1.8 1.4-3 1.4H39c-5.6.1-10 4.6-10 10.2v37.3c0 5.5 4.4 9.9 9.9 9.9h62.3c5.4-.1 9.8-4.5 9.9-9.9v-37.5c-.1-5.5-4.4-9.9-9.9-10.1zm-39.6-3.6c1-1 2.4-1.5 3.8-1.5H74c1.4-.1 2.8.4 3.8 1.4l4.1 3.6H58.2l3.4-3.5zm-22.5 7.7h50.4c.2 0 .5.1.7.1h10.9c1 0 2.1.3 2.9.9l-26.1 18.3c-.9-.7-2-1.2-3.2-1.2h-8c-1.4 0-2.8.6-3.7 1.6L36.1 1373c.9-.5 1.9-.8 3-.9zm36.6 23.4v3.1c0 .6-.4 1-1 1h-8c-.6 0-1-.4-1-1v-3.1c0-.6.4-1 1-1h8c.5 0 1 .4 1 .9v.1zm31.1 20c0 3.1-2.6 5.7-5.7 5.7H38.9c-3.1 0-5.7-2.6-5.7-5.7v-37.2c0-.7.1-1.4.4-2l27.4 19.3c.1.1.2.2.4.2v2.7c0 2.8 2.3 5.2 5.1 5.2h8.1c2.8 0 5.2-2.3 5.2-5.1v-3.5l26.7-18.8c.2.5.3 1.1.3 1.7v37.5z" class="st0"/><path id="i-lrg.i-mdm.i-sml-12" d="M73 1510l38-36c.8-.8.9-2.1.1-2.9-.8-.8-2.1-.9-2.9-.1L70 1507.1 31.8 1471c-.8-.8-2.1-.7-2.9.1-.8.8-.7 2.1.1 2.9l38 36-38 36c-.8.8-.9 2.1-.1 2.9.4.4.9.7 1.5.7.5 0 1-.2 1.4-.6l38.2-36.1 38.2 36.1c.4.4.9.6 1.4.6.6 0 1.1-.2 1.5-.7.8-.8.8-2.1 0-2.8 0 0-.1 0-.1-.1l-38-36z" class="st0"/><path id="i-lrg.i-mdm.i-sml-13" d="M31.1 1602.6c-1.3.1-2.4-.9-2.5-2.2-.1-1.3.9-2.4 2.2-2.5H42.9c1.3-6.2 7.4-10.3 13.6-9 4.5.9 8.1 4.5 9 9h44.1c1.3 0 2.3 1 2.3 2.3 0 1.3-1 2.3-2.3 2.3h-44c-1.3 6.2-7.4 10.3-13.6 9-4.5-.9-8.1-4.5-9-9l-11.9.1zm16.1-2.3c.1 3.8 3.4 6.8 7.2 6.7 3.6-.1 6.5-3 6.7-6.7-.1-3.8-3.4-6.8-7.2-6.7-3.7.2-6.6 3.1-6.7 6.7zm-18.5 29.9c0-1.3 1-2.3 2.3-2.3h44.1c1.3-6.2 7.4-10.3 13.6-9 4.5.9 8.1 4.5 9 9h12c1.3 0 2.3 1 2.3 2.3 0 1.3-1 2.3-2.3 2.3h-12c-1.3 6.2-7.4 10.2-13.6 8.9-4.5-.9-8-4.4-8.9-8.9H31.1c-1.3.1-2.4-1-2.4-2.3zm50.8 0c0 3.8 3.1 6.9 6.9 6.9s6.9-3.1 6.9-6.9c0-3.8-3.1-6.9-6.9-6.9-3.8 0-6.9 3.1-6.9 6.9zm32.3 30.1c0 1.3-1 2.3-2.3 2.3H76.9c-1.3 6.2-7.3 10.3-13.6 9-4.5-.9-8.1-4.5-9-9H31.1c-1.3.1-2.4-.9-2.5-2.2-.1-1.3.9-2.4 2.2-2.5h23.6c1.3-6.2 7.3-10.3 13.6-9 4.5.9 8.1 4.5 9 9h32.5c1.2.1 2.2 1.1 2.3 2.4zm-39.2 0c0-3.8-3.1-6.9-7-6.9s-6.9 3.1-6.9 7 3.1 6.9 7 6.9c3.8-.1 6.8-3.2 6.9-7z" class="st0"/><path id="i-lrg.i-mdm.i-sml-14" d="M111.1 1788.1l-28-28c11.3-13 9.8-32.7-3.2-44-13-11.3-32.7-9.8-44 3.2s-9.8 32.7 3.2 44c5.7 4.9 12.9 7.6 20.4 7.6 7.6 0 14.9-2.8 20.5-7.8l28 28c.4.4.9.6 1.5.6s1.1-.2 1.5-.6c.9-.8.9-2.1.1-3zm-78.6-48.5c0-15 12.1-27.1 27.1-27.1 15 0 27.1 12.1 27.1 27.1 0 15-12.1 27.1-27.1 27.1-14.9 0-27.1-12.2-27.1-27.1z" class="st0"/><path id="i-lrg.i-mdm.i-sml-15" d="M111.1 1908.1l-28-28c11.3-13 9.8-32.7-3.2-44-13-11.3-32.7-9.8-44 3.2s-9.8 32.7 3.2 44c5.7 4.9 12.9 7.6 20.4 7.6 7.6 0 14.9-2.8 20.5-7.8l28 28c.4.4.9.6 1.5.6s1.1-.2 1.5-.6c.9-.8.9-2.1.1-3zm-78.6-48.5c0-15 12.1-27.1 27.1-27.1 15 0 27.1 12.1 27.1 27.1 0 15-12.1 27.1-27.1 27.1-14.9 0-27.1-12.2-27.1-27.1z" class="st1"/><path id="i-lrg.i-mdm.i-sml-16" d="M74.2 2006.7h-2.1v-22.9c0-1.1-.9-2.1-2-2.1h-4.3c-1.2 0-2.1 1-2.1 2.1 0 1.2.9 2.1 2.1 2.1h2.1v20.8h-2.1c-1.2 0-2.1 1-2.1 2.1 0 1.2.9 2.1 2.1 2.1h8.3c1.1 0 2.1-.9 2.1-2v-.1c.1-1.1-.8-2-1.9-2.1h-.1zm-4.2-58.4c-23 0-41.7 18.7-41.7 41.7s18.7 41.7 41.7 41.7 41.7-18.7 41.7-41.7c0-23-18.7-41.6-41.7-41.7zm0 79.2c-20.7 0-37.5-16.8-37.5-37.5s16.8-37.5 37.5-37.5 37.5 16.8 37.5 37.5-16.8 37.5-37.5 37.5zm-1-52.6c1.7 0 3.1-1.4 3.1-3.1 0-1.7-1.4-3.1-3.1-3.1s-3.1 1.4-3.1 3.1c0 1.7 1.3 3.1 3 3.1h.1z" class="st0"/><path id="i-lrg.i-mdm.i-sml-17" d="M110.6 2121.7c-1.1 0-2.1.9-2.1 2v10.5c0 4.6-3.7 8.3-8.3 8.3H41.8c-4.6 0-8.3-3.7-8.3-8.3v-10.4c0-1.2-.9-2.1-2.1-2.1-1.2 0-2.1.9-2.1 2.1v10.4c0 6.9 5.6 12.5 12.5 12.5h58.3c6.9 0 12.5-5.6 12.5-12.5v-10.4c.1-1.1-.8-2-1.9-2.1h-.1zm-41.1 11.8c.2.2.4.3.6.4.1 0 .1 0 .1.1.3.1.5.2.8.2.3 0 .6-.1.8-.2.1 0 .1 0 .1-.1.2-.1.4-.2.5-.4l13.5-14.6c.8-.8.7-2.1-.1-2.9-.8-.8-2.1-.7-2.9.1l-9.9 10.7v-44.7c0-1.2-.9-2.1-2.1-2.1-1.2 0-2.1.9-2.1 2.1v44.7l-9.8-10.7c-.8-.8-2.1-.9-2.9-.1-.8.8-.9 2.1-.1 2.9l13.5 14.6z" class="st0"/><path id="i-lrg.i-mdm.i-sml-18" d="M70 2224.8l-23.2 23.1c-2.6 2.5-6.7 2.5-9.3 0-2.5-2.5-2.6-6.6-.1-9.1l.1-.1 27.8-27.6c2.6-2.5 6.7-2.5 9.3 0l27.8 27.6c2.5 2.5 2.6 6.6 0 9.2-2.3 2.4-6.2 2.4-8.6.1-.3-.2-.5-.5-.7-.8L70 2224.8z" class="st0"/><path id="i-lrg.i-mdm.i-sml-19" d="M109.6 2325H30.4c-1.2 0-2.1-1-2.1-2.1 0-1.2.9-2.1 2.1-2.1h79.2c1.1 0 2.1.9 2.1 2v.1c0 1.2-.9 2.1-2.1 2.1zm0 27.1H30.4c-1.2 0-2.1-.9-2.1-2.1 0-1.2.9-2.1 2.1-2.1h79.2c1.1 0 2.1.9 2.1 2v.1c0 1.2-.9 2.1-2.1 2.1zm0 27.1H30.4c-1.1 0-2.1-.9-2.1-2v-.1c0-1.2.9-2.1 2.1-2.1h79.2c1.1 0 2.1.9 2.1 2v.1c0 1.2-.9 2.1-2.1 2.1z" class="st0"/><path id="i-lrg.i-mdm.i-sml-2-2" d="M105.3 2489.6c-.6 0-1.1-.2-1.5-.6l-33.9-33.9-34 33.9c-.7.9-2 1.1-2.9.4-.9-.7-1.1-2-.4-2.9.1-.1.2-.3.4-.4l35.4-35.4c.8-.8 2.1-.8 2.9 0l35.4 35.4c.8.8.8 2.1 0 2.9-.3.4-.9.7-1.4.6z" class="st0"/><path id="i-lrg.i-mdm.i-sml-2-3" d="M70 2610.8c-.6 0-1.1-.2-1.5-.6l-35.4-35.4c-.8-.8-.8-2.1 0-2.9.8-.8 2.1-.8 2.9 0l33.9 33.9 33.9-33.9c.8-.8 2.1-.8 2.9 0s.8 2.1 0 2.9l-35.4 35.4c-.2.4-.7.6-1.3.6z" class="st0"/><path id="i-lrg.i-mdm.i-sml-20" d="M52.3 2748.5c-1.1 0-2.1-.9-2.1-2.1 0-.6.2-1.1.6-1.5l33.9-33.9-33.9-33.9c-.8-.8-.8-2.1 0-2.9.8-.8 2.1-.8 2.9 0l35.4 35.4c.8.8.8 2.1 0 2.9l-35.4 35.4c-.3.4-.9.6-1.4.6z" class="st0"/><path d="M96.2 2871.7h-.1c-14.2-.5-30.9-14.3-42.3-25.9s-25.2-28.3-25.4-42.4c-.1-5.1 12.3-13.7 12.4-13.8 3.3-2.2 6.9-1.4 8.4.7 1 1.4 10.1 15.3 11.1 16.9 1.1 1.7.9 4.3-.5 6.8-.7 1.3-3.1 5.3-4.2 7.3 3.3 4.4 6.9 8.5 10.8 12.3 3.3 3.4 11 9 14 11.1l5.5-4.1c.1-.1.2-.1.3-.2 2.6-1.3 5-1.4 6.7-.4s15.7 10.4 16.9 11.3c2.1 1.5 2.9 5.1.5 8.4-1.8 2.4-3.7 4.6-5.8 6.7-4.7 4.6-6.9 5.3-8.3 5.3zm-51.3-79.2c-.6 0-1.3.2-1.8.6-3.7 2.5-10.3 8.5-10.6 10.3.1 7 4.4 19.5 24.2 39.5s32.4 24.4 39.5 24.6c1.7-.2 7.6-6.1 10.7-10.3 1-1.4.6-2.4.4-2.6-1.1-.8-15.1-10.1-16.6-11.1-.9-.1-1.7 0-2.5.5l-6.6 5c-.7.5-1.7.5-2.4 0-.5-.3-11.4-8-15.8-12.5-9.2-9.2-12-14-12.1-14.1-.4-.6-.4-1.5 0-2.1 0-.1 3.9-6.6 4.8-8.3.5-.7.7-1.7.6-2.5-1-1.6-10-15.4-10.9-16.6-.3-.3-.6-.4-.9-.4zM103.3 2916.7H36.7c-4.6 0-8.3 3.7-8.3 8.3v41.7c0 4.6 3.7 8.3 8.3 8.3h31.2v4.2H49.2c-1.2 0-2.1.9-2.1 2.1s.9 2.1 2.1 2.1h41.7c1.2 0 2.1-.9 2.1-2.1s-.9-2.1-2.1-2.1H72.1v-4.2h31.2c4.6 0 8.3-3.7 8.3-8.3V2925c.1-4.6-3.7-8.3-8.3-8.3zm-42.7 23.4c0-5.2 4.2-9.4 9.4-9.4s9.4 4.2 9.4 9.4-4.2 9.4-9.4 9.4-9.4-4.2-9.4-9.4zm9.5 13.8c9.9 0 15.1 8.8 16.8 16.9H53.1c2.4-12.4 10.6-16.9 17-16.9zm37.4 12.8c0 2.3-1.9 4.2-4.2 4.2H91.2c-1.9-11-7.6-16.9-13.6-19.5 6.2-4.2 7.8-12.6 3.7-18.8-4.2-6.2-12.6-7.8-18.8-3.7-6.2 4.2-7.8 12.6-3.7 18.8 1 1.4 2.2 2.7 3.7 3.7-2.2 1-4.2 2.3-5.9 3.9-3.9 3.7-6.6 9.1-7.8 15.6H36.7c-2.3 0-4.2-1.9-4.2-4.2V2925c0-2.3 1.9-4.2 4.2-4.2h66.7c2.3 0 4.2 1.9 4.2 4.2l-.1 41.7z" class="st0"/><path id="i-lrg.i-mdm.i-sml-21" d="M80.3 71.8c11.3-5.7 15.8-19.5 10-30.8-5.7-11.3-19.5-15.8-30.8-10s-15.8 19.5-10 30.8c2.2 4.4 5.8 8 10.2 10.1-11.7 3.9-23.3 15.2-26.6 37.2-.2 1.2.6 2.3 1.8 2.4 1.2.2 2.3-.6 2.4-1.8 3.8-26.2 20.1-35.4 32.9-35.4 16.6 0 29.3 13.9 32.4 35.4.2 1 1.1 1.8 2.1 1.8h.3c1.1-.2 1.9-1.3 1.8-2.4C103.5 87 92 75.8 80.3 71.8zM51.2 51.4c0-10.4 8.3-18.8 18.7-18.9 10.4-.1 18.8 8.3 18.9 18.7S80.5 70 70.1 70.1H70c-10.3 0-18.7-8.4-18.8-18.7z" class="st0"/></g><g id="rot"><path id="i-lrg.i-mdm.i-sml-22" d="M200.3 71.8c11.3-5.7 15.8-19.5 10-30.8s-19.5-15.8-30.8-10c-11.3 5.7-15.8 19.5-10 30.8 2.2 4.4 5.8 8 10.2 10.1-11.7 3.9-23.3 15.2-26.6 37.2-.2 1.2.6 2.3 1.8 2.4s2.3-.6 2.4-1.8c3.8-26.2 20.1-35.4 32.9-35.4 16.6 0 29.3 13.9 32.4 35.4.2 1 1.1 1.8 2.1 1.8h.3c1.1-.2 1.9-1.3 1.8-2.4-3.3-22.1-14.8-33.3-26.5-37.3zm-29.1-20.4c-.1-10.4 8.3-18.8 18.7-18.9 10.4-.1 18.8 8.3 18.9 18.7.1 10.4-8.3 18.8-18.7 18.9h-.1c-10.3 0-18.7-8.4-18.8-18.7z" class="st2"/><path id="i-lrg.i-mdm.i-sml-23" d="M196.2 207.2h-12.4c-1.2 0-2.1.9-2.1 2.1 0 1.2.9 2.1 2.1 2.1h12.5c1.1 0 2.1-.9 2.1-2v-.1c-.1-1.2-1-2.1-2.2-2.1zm27.1-45.9h-66.6c-4.6 0-8.3 3.7-8.3 8.3v41.7c0 4.6 3.7 8.3 8.3 8.3h66.7c4.6 0 8.3-3.7 8.3-8.3v-41.6c0-4.6-3.8-8.4-8.4-8.4zm4.2 50c0 2.3-1.9 4.2-4.2 4.2h-66.6c-2.3 0-4.2-1.9-4.2-4.2v-41.6c0-2.3 1.9-4.2 4.2-4.2h66.7c2.3 0 4.2 1.9 4.2 4.2l-.1 41.6z" class="st2"/><path id="i-lrg.i-mdm.i-sml-24" d="M156.7 288.3c.6 0 1.1-.2 1.5-.6 18-18.1 47.3-18.2 65.5-.2.8.8 2.1.8 2.9 0s.8-2.1 0-2.9c-19.8-19.7-51.7-19.6-71.4.1-.8.8-.8 2.1 0 2.9.4.5.9.7 1.5.7zM217 298c.8-.8.8-2.1 0-2.9-14.4-14.3-37.6-14.2-51.9.1-.8.8-.8 2.1 0 2.9.4.4.9.6 1.5.6s1.1-.2 1.5-.6c12.7-12.7 33.2-12.7 46-.1.8.8 2.1.8 2.9 0zm-41.7 7.4c-.8.8-.8 2.1 0 2.9.4.4.9.6 1.5.6s1.1-.2 1.5-.6c7-7 18.4-7.1 25.5-.1.8.8 2.1.8 2.9 0s.8-2.1 0-2.9c-8.7-8.6-22.7-8.6-31.4.1zm15.7 27.9c-2.4 0-4.4 2-4.4 4.4s2 4.4 4.4 4.4c2.4 0 4.4-2 4.4-4.4 0-2.4-2-4.4-4.4-4.4zm-.2 4.4c0-.1.1-.2.2-.2s.2.1.2.2-.1.2-.2.2-.2-.1-.2-.2zm32.8-16.6h-65.2c-5 0-9.1 4.1-9.1 9.1v14c0 5 4.1 9.1 9.1 9.1h65.2c5 0 9.1-4.1 9.1-9.1v-14c0-5-4-9.1-9.1-9.1zm4.9 23c0 2.7-2.2 4.9-4.9 4.9h-65.2c-2.7 0-4.9-2.2-4.9-4.9v-14c0-2.7 2.2-4.9 4.9-4.9h65.2c2.7 0 4.9 2.2 4.9 4.9v14z" class="st2"/><path id="i-lrg.i-mdm.i-sml-25" d="M199.2 428.7v12.9c0 1.2.9 2.1 2.1 2.1 1.2 0 2.1-.9 2.1-2.1v-4.4h3.3c1.2 0 2.1-.9 2.1-2.1s-.9-2.1-2.1-2.1h-3.3v-2.3h4.4c1.2 0 2.1-.9 2.1-2.1s-.9-2.1-2.1-2.1h-6.5c-1.2.1-2.1 1-2.1 2.2zm-5.4-.1c-2.9-2.6-7.1-2.1-7.5-2-1 .1-1.8 1-1.8 2.1v12.9c0 1 .8 1.9 1.8 2.1.4.1.9.1 1.3.1 2.3.1 4.5-.7 6.2-2.1 1.2-1 2.6-3 2.6-6.5.2-2.5-.8-4.9-2.6-6.6zm-2.8 9.9c-.7.6-1.5.9-2.4 1v-8.7c2.1.1 3.7 1.9 3.6 4v.4c.1 1.2-.3 2.4-1.2 3.3zm-15.3-11.9H172c-1.1 0-2.1.9-2.1 2v13c0 1.2.9 2.1 2.1 2.1 1.2 0 2.1-.9 2.1-2.1v-3.3h1.5c1.6.1 3.1-.5 4.3-1.5 1.2-1.2 1.8-2.8 1.7-4.4.1-1.6-.5-3.2-1.7-4.4-1.2-.9-2.7-1.4-4.2-1.4zm1.3 7.1c-.4.3-.8.4-1.3.4H174v-3.4h1.8c.4 0 .9.1 1.2.4.3.2.4.7.4 1.3s-.1 1.1-.4 1.3zm41.6-27.1c-.1-.2-.2-.5-.4-.7l-16.5-16.4c-.2-.2-.4-.3-.7-.4-.3-.1-.5-.2-.8-.2h-30.7c-4.5 0-8.2 3.7-8.2 8.2v65.7c0 4.5 3.7 8.2 8.2 8.2h41c4.5 0 8.2-3.7 8.2-8.2v-55.4c.1-.3 0-.6-.1-.8zM202.3 396l9.3 9.3h-9.3V396zm12.3 66.8c0 2.3-1.8 4.1-4.1 4.1h-41c-2.3 0-4.1-1.8-4.1-4.1v-65.6c0-2.3 1.8-4.1 4.1-4.1h28.7v14.3c0 1.1.9 2.1 2 2.1h14.4v53.3z" class="st2"/><path id="i-lrg.i-mdm.i-sml-26" d="M196.2 579.2h-12.5c-1.2 0-2.1.9-2.1 2.1 0 1.2.9 2.1 2.1 2.1h12.5c1.1 0 2.1-.9 2.1-2v-.1c0-1.2-.9-2.1-2.1-2.1zm10.4-70.9h-33.4c-4.6 0-8.3 3.7-8.3 8.3v66.7c0 4.6 3.7 8.3 8.3 8.3h33.3c4.6 0 8.3-3.7 8.3-8.3v-66.6c.1-4.5-3.5-8.3-8-8.4h-.2zm4.2 75c0 2.3-1.9 4.2-4.2 4.2h-33.4c-2.3 0-4.2-1.9-4.2-4.2v-66.6c0-2.3 1.9-4.2 4.2-4.2h33.3c2.3 0 4.2 1.9 4.2 4.2l.1 66.6z" class="st2"/><path id="i-lrg.i-mdm.i-sml-27" d="M173.3 663.8c0 1.1.9 2.1 2 2.1h29.3c1.2 0 2.1-.9 2.1-2.1 0-1.2-.9-2.1-2.1-2.1h-29.2c-1.2 0-2.1.9-2.1 2.1zm31.3 10.4h-29.2c-1.2 0-2.1.9-2.1 2.1 0 1.2.9 2.1 2.1 2.1h29.2c1.1 0 2.1-.9 2.1-2v-.1c0-1.2-.9-2.1-2.1-2.1zm0 12.5h-29.2c-1.2 0-2.1.9-2.1 2.1 0 1.2.9 2.1 2.1 2.1h29.2c1.1 0 2.1-.9 2.1-2v-.1c0-1.2-.9-2.1-2.1-2.1zm14-41.1l-16.7-16.7c-.4-.4-.9-.6-1.5-.6h-31.2c-4.6 0-8.3 3.7-8.3 8.3v66.7c0 4.6 3.7 8.3 8.3 8.3h41.7c4.6 0 8.3-3.7 8.3-8.3v-56.2c0-.6-.2-1.1-.6-1.5zm-16.1-10.2l9.6 9.6h-9.6v-9.6zm12.5 67.9c0 2.3-1.9 4.2-4.2 4.2h-41.6c-2.3 0-4.2-1.9-4.2-4.2v-66.6c0-2.3 1.9-4.2 4.2-4.2h29.2v14.6c0 1.1.9 2.1 2 2.1H215v54.1z" class="st2"/><path id="i-lrg.i-mdm.i-sml-28" d="M185.8 812c-4.6 0-8.3 3.7-8.3 8.3 0 4.6 3.7 8.3 8.3 8.3 4.6 0 8.3-3.7 8.3-8.3 0-4.6-3.7-8.3-8.3-8.3zm0 12.5c-2.3 0-4.2-1.9-4.2-4.2 0-2.3 1.9-4.2 4.2-4.2 2.3 0 4.2 1.9 4.2 4.2 0 2.3-1.9 4.2-4.2 4.2zm25-12.5c-4.6 0-8.3 3.7-8.3 8.3 0 4.6 3.7 8.3 8.3 8.3 4.6 0 8.3-3.7 8.3-8.3 0-4.6-3.7-8.3-8.3-8.3zm0 12.5c-2.3 0-4.2-1.9-4.2-4.2 0-2.3 1.9-4.2 4.2-4.2 2.3 0 4.2 1.9 4.2 4.2 0 2.3-1.9 4.2-4.2 4.2zm20.5-61.6c-.4-.5-1-.9-1.7-.9h-61.4l-2.3-6.9c-.3-.9-1.1-1.4-2-1.4h-13.5c-1.2 0-2.1.9-2.1 2.1 0 1.2.9 2.1 2.1 2.1h12l2.2 6.8c0 .1 0 .1.1.2l12.3 37.4c.3.9 1.1 1.4 2 1.4h38.5c.9 0 1.7-.6 2-1.4l12-37.5c.3-.6.2-1.4-.2-1.9zm-15.2 36.6h-35.5l-11-33.3h57.1l-10.6 33.3z" class="st2"/><path id="i-lrg.i-mdm.i-sml-29" d="M222.1 936.6c12.8-15.4 12.8-37.8 0-53.2v-.1c-.1-.1-.2-.1-.2-.2-7.2-8.4-17.3-13.6-28.3-14.6-.2 0-.4-.1-.6 0-1-.1-2-.2-3-.2s-2 .1-3 .2h-.6c-11 1-21.1 6.3-28.2 14.7l-.2.2v.1c-12.8 15.4-12.8 37.8 0 53.2 0 .1 0 .1.1.1 7.1 8.4 17.3 13.7 28.3 14.7.1 0 .3.1.4.1h.2c1 .1 2.1.2 3.1.2 1.1 0 2-.1 3.1-.2h.2c.1 0 .3 0 .4-.1 11-1 21.1-6.3 28.1-14.8.1 0 .1 0 .2-.1zm-29.7 10.8h-.3v-20.6c4.7.2 9.4 1.2 13.8 3-3.4 6.6-8 12.6-13.5 17.6zm-4.8 0c-5.5-5-10.1-11-13.5-17.6 4.4-1.8 9.1-2.8 13.8-3v20.6h-.3zm-35-35.3h12.5c.4 5.4 1.5 10.6 3.5 15.6-2.9 1.5-5.8 3.1-8.5 4.9-4.5-5.9-7.1-13.1-7.5-20.5zm7.5-24.7c2.7 1.8 5.5 3.5 8.4 4.9-2 5-3.2 10.2-3.5 15.6h-12.4c.4-7.4 3-14.6 7.5-20.5zm27.5-14.8h.4v20.6c-4.8-.2-9.5-1.2-14-3 3.4-6.7 8-12.6 13.6-17.6zm4.8 0c5.6 5 10.2 10.9 13.6 17.6-4.4 1.8-9.1 2.8-13.9 3.1v-20.7h.3zm35 35.3h-12.5c-.2-5.4-1.4-10.6-3.4-15.6 2.9-1.4 5.7-3.1 8.4-4.9 4.5 5.9 7.1 13.1 7.5 20.5zm-16.6 0h-18.7v-10.5c5.4-.3 10.6-1.4 15.6-3.4 1.8 4.4 2.8 9.1 3.1 13.9zm-22.9-10.5v10.5h-18.7c.2-4.8 1.3-9.5 3.1-13.9 5 2 10.2 3.1 15.6 3.4zm-18.7 14.7h18.7v10.5c-5.3.3-10.6 1.4-15.5 3.4a44 44 0 0 1-3.2-13.9zm22.9 10.5v-10.5h18.7a44 44 0 0 1-3.2 13.9c-4.9-2-10.2-3.1-15.5-3.4zm22.8-10.5h12.5c-.4 7.4-3 14.6-7.5 20.5-2.7-1.9-5.5-3.5-8.5-4.9 2.1-5 3.2-10.2 3.5-15.6zm2.3-27.9c-2.3 1.6-4.8 3-7.3 4.3-2.7-5.4-6.1-10.4-10.3-14.7 6.7 1.8 12.8 5.4 17.6 10.4zm-36.7-10.4c-4.1 4.4-7.6 9.3-10.3 14.7-2.6-1.3-5-2.7-7.4-4.3 4.8-5 10.9-8.6 17.7-10.4zm-17.7 62c2.4-1.6 4.9-3.1 7.5-4.3 2.7 5.4 6.2 10.4 10.3 14.8-6.8-1.8-13-5.4-17.8-10.5zm36.6 10.4c4.1-4.4 7.5-9.4 10.2-14.8 2.6 1.2 5.1 2.7 7.5 4.3-4.7 5.2-10.9 8.8-17.7 10.5z" class="st2"/><path id="i-lrg.i-mdm.i-sml-30" d="M190 1007c-8.6 0-11.9 6-12.5 9.3-.2 1.1.5 2.2 1.7 2.4 1.1.2 2.2-.5 2.4-1.7v-.1c0-.2 1.1-5.9 8.4-5.9 3-.1 5.7 1.8 6.8 4.6 1.2 2.8.8 6.1-1 7.8-2.1 2.2-3.9 4-5.2 5.2-1.7 1.7-2.7 4.1-2.7 6.5v4c0 1.2.9 2.1 2.1 2.1 1.2 0 2.1-.9 2.1-2.1v-4c0-1.3.5-2.6 1.5-3.5l5.3-5.3c2.9-3 3.7-8 1.8-12.4-1.8-4.2-6-7-10.7-6.9zm0-18.7c-23 0-41.7 18.7-41.7 41.7s18.7 41.7 41.7 41.7 41.7-18.7 41.7-41.7c0-23-18.7-41.7-41.7-41.7zm0 79.2c-20.7 0-37.5-16.8-37.5-37.5s16.8-37.5 37.5-37.5 37.5 16.8 37.5 37.5-16.8 37.5-37.5 37.5zm0-19.8c-1.7 0-3.1 1.4-3.1 3.1 0 1.7 1.4 3.1 3.1 3.1s3.1-1.4 3.1-3.1c0-1.7-1.4-3.1-3.1-3.1zm0 4.2c-.6 0-1-.4-1-1s.4-1 1-1c.5 0 1 .5 1 1 0 .6-.4 1-1 1z" class="st2"/><path id="i-lrg.i-mdm.i-sml-31" d="M178.8 1176.5h-.1v-11.1c0-1.1-.9-2.1-2-2.1H174.4c-1.2 0-2.1 1-2.1 2.1 0 1.2.9 2.1 2.1 2.1h.1v9h-.1c-1.2 0-2.1 1-2.1 2.1 0 1.2.9 2.1 2.1 2.1h4.4c1.2 0 2.1-.9 2.1-2.1 0-1.1-.9-2.1-2.1-2.1zm39.5-68.2h-31.6c-4.4 0-8 3.6-8 8v29.6c-.7-.1-1.4-.1-2.1-.1-12.6 0-22.9 10.2-22.9 22.9 0 12.6 10.2 22.9 22.9 22.9 4.7 0 9.4-1.5 13.2-4.2h28.4c4.4 0 8-3.6 8-8v-63.1c.1-4.4-3.4-7.9-7.8-8h-.1zm-29.8 75c-1.7 1.4-3.6 2.4-5.6 3.1-9.8 3.5-20.5-1.7-24-11.4-3.5-9.8 1.7-20.5 11.4-24 2-.7 4.1-1.1 6.3-1.1.7 0 1.4 0 2.1.1 1.4.2 2.8.5 4.2 1 9.8 3.5 14.9 14.3 11.4 24.1-1.1 3.2-3.2 6-5.8 8.2zm33.6-3.9c0 2.1-1.7 3.8-3.8 3.8h-23.9c.9-1.2 1.8-2.4 2.5-3.7h11.6c1.2 0 2.1-1 2.1-2.1 0-1.2-.9-2.1-2.1-2.1h-9.8c.6-2.1 1-4.4 1-6.6 0-10.2-6.8-19.2-16.7-22v-30.4c0-2.1 1.7-3.8 3.8-3.8h31.5c2.1 0 3.8 1.7 3.8 3.8v63.1zm-46-17.6c1.4 0 2.6-1.2 2.6-2.6 0-1.4-1.2-2.6-2.6-2.6-1.4 0-2.6 1.2-2.6 2.6 0 1.4 1.1 2.6 2.6 2.6z" class="st2"/><path id="i-lrg.i-mdm.i-sml-32" d="M228.5 1269.2c-1-1.8-2.4-3.5-3.9-4.9-2.7-2.3-5.7-4.1-9-5.4.6-5.6-2.7-10.6-2.8-10.7-2-3.3-4.6-6.2-7.7-8.5-3.3-2.4-7-4.2-10.9-5.2-4.3-1.2-8.7-1.6-13.1-1.3-4.4.3-8.7 1.3-12.8 3-3.8 1.6-7.3 3.8-10.4 6.6-2.9 2.6-5.3 5.8-6.9 9.4-1.6 3.5-2.4 7.4-2.2 11.3.1 2.5.6 4.9 1.5 7.2.8 2.3 2 4.4 3.5 6.3 1.5 1.9 3.2 3.7 5.1 5.2 2 1.4 4.1 2.6 6.3 3.6-2 3.4-4.7 6.3-7.9 8.6-.8.5-1.1 1.4-.9 2.3.2.9.9 1.5 1.8 1.6 1 .1 2 .1 3 .1 1.9 0 3.9-.2 5.8-.5 2.1-.4 4.1-.9 6-1.7.1 0 2.3-.9 8.2-4.3 1.4 2 3.1 3.8 5.1 5.2 2.6 1.9 5.6 3.3 8.7 4.2 3.2.9 6.6 1.3 9.9 1.1 1 .7 2 1.3 3.1 1.9 1.6.8 3.2 1.5 4.9 2 2 .6 4 .9 6 1h1.2c1.9 0 3.8-.2 5.7-.6 1.1-.2 1.8-1.3 1.6-2.4-.1-.6-.5-1.1-1-1.4-1.6-1-4.8-3.5-5.7-5.7 1.3-.9 2.5-1.9 3.6-3 1.4-1.4 2.6-3 3.7-4.7 1-1.7 1.8-3.5 2.3-5.4 1.5-5 .8-10.4-1.8-14.9zm-56.9 23c-1.7.7-3.5 1.2-5.3 1.5l-2.1.3c2.4-2.4 4.3-5.3 5.7-8.4.4-1-.1-2.2-1.1-2.7-2.6-1.1-5-2.4-7.3-3.9-1.6-1.3-3.1-2.8-4.4-4.5-1.2-1.6-2.2-3.4-2.9-5.3-.7-1.9-1.1-3.9-1.2-5.9-.1-3.2.5-6.4 1.8-9.3 1.4-3.1 3.4-5.8 5.9-8 2.7-2.5 5.8-4.5 9.2-5.8 3.7-1.5 7.6-2.4 11.5-2.7 3.9-.3 7.9.1 11.7 1.2 3.5.9 6.7 2.5 9.6 4.6 2.7 1.9 5 4.4 6.6 7.3 1.3 2.2 2.1 4.7 2.2 7.3-2.7-.6-5.5-.8-8.3-.6-3.5.2-7 1-10.2 2.4-3 1.3-5.8 3.1-8.2 5.3-2.3 2.1-4.2 4.7-5.5 7.5-1.3 2.8-1.9 5.9-1.7 9 .1 2.4.6 4.7 1.6 6.8-2.4 1.5-5 2.8-7.6 3.9zm54.9-9.4c-.4 1.5-1 3-1.8 4.3-.9 1.4-1.9 2.7-3 3.9-1.2 1.2-2.6 2.3-4.1 3.2-.6.4-1 1.1-1 1.9.1 2.6 1.9 5 3.7 6.8h-1.1c-1.7-.1-3.4-.3-5-.8-1.4-.4-2.9-1-4.2-1.7-1.1-.6-2.2-1.2-3.2-1.9-.3-.3-.8-.4-1.2-.4h-.5c-3 .2-6.1-.1-9-.9-2.6-.7-5.2-1.9-7.4-3.5-2-1.5-3.7-3.4-5-5.5-1.2-2.1-1.9-4.5-2-6.9-.1-2.4.4-4.9 1.4-7.1 1.1-2.4 2.6-4.5 4.5-6.2 2.1-1.9 4.4-3.4 7-4.5 5.6-2.4 11.9-2.8 17.8-1.2l.8.2c.1 0 .1.1.2.1 3.1 1.2 5.9 2.8 8.4 4.9 1.2 1.1 2.2 2.4 3 3.9 2.1 3.4 2.7 7.6 1.7 11.4z" class="st2"/><path id="i-lrg.i-mdm.i-sml-33" d="M221.2 1368h-10.9c-1.4 0-2.6-.5-3.6-1.5l-5.9-5.2a9.19 9.19 0 0 0-6.7-2.5h-8.6c-2.5 0-5 1-6.8 2.7l-5 5.2c-.7.9-1.8 1.4-3 1.4H159c-5.6.1-10 4.6-10 10.2v37.3c0 5.5 4.4 9.9 9.9 9.9h62.3c5.4-.1 9.8-4.5 9.9-9.9v-37.5c-.1-5.5-4.4-9.9-9.9-10.1zm-39.6-3.6c1-1 2.4-1.5 3.8-1.5h8.6c1.4-.1 2.8.4 3.8 1.4l4.1 3.6h-23.7l3.4-3.5zm-22.5 7.7h50.4c.2 0 .5.1.7.1h10.9c1 0 2.1.3 2.9.9l-26.1 18.3c-.9-.7-2-1.2-3.2-1.2h-8c-1.4 0-2.8.6-3.7 1.6l-26.9-18.8c.9-.5 1.9-.8 3-.9zm36.6 23.4v3.1c0 .6-.4 1-1 1h-8c-.6 0-1-.4-1-1v-3.1c0-.6.4-1 1-1h8c.5 0 1 .4 1 .9v.1zm31.1 20c0 3.1-2.6 5.7-5.7 5.7h-62.2c-3.1 0-5.7-2.6-5.7-5.7v-37.2c0-.7.1-1.4.4-2l27.4 19.3c.1.1.2.2.4.2v2.7c0 2.8 2.3 5.2 5.1 5.2h8.1c2.8 0 5.2-2.3 5.2-5.1v-3.5l26.7-18.8c.2.5.3 1.1.3 1.7v37.5z" class="st2"/><path id="i-lrg.i-mdm.i-sml-34" d="M193 1510l38-36c.8-.8.9-2.1.1-2.9-.8-.8-2.1-.9-2.9-.1l-38.2 36.1-38.2-36.1c-.8-.8-2.1-.7-2.9.1-.8.8-.7 2.1.1 2.9l38 36-38 36c-.8.8-.9 2.1-.1 2.9.4.4.9.7 1.5.7.5 0 1-.2 1.4-.6l38.2-36.1 38.2 36.1c.4.4.9.6 1.4.6.6 0 1.1-.2 1.5-.7.8-.8.8-2.1 0-2.8 0 0-.1 0-.1-.1l-38-36z" class="st2"/><path id="i-lrg.i-mdm.i-sml-35" d="M151.1 1602.6c-1.3.1-2.4-.9-2.5-2.2-.1-1.3.9-2.4 2.2-2.5H162.9c1.3-6.2 7.4-10.3 13.6-9 4.5.9 8.1 4.5 9 9h44.1c1.3 0 2.3 1 2.3 2.3 0 1.3-1 2.3-2.3 2.3h-44c-1.3 6.2-7.4 10.3-13.6 9-4.5-.9-8.1-4.5-9-9l-11.9.1zm16.1-2.3c.1 3.8 3.4 6.8 7.2 6.7 3.6-.1 6.5-3 6.7-6.7-.1-3.8-3.4-6.8-7.2-6.7-3.7.2-6.6 3.1-6.7 6.7zm-18.4 29.9c0-1.3 1-2.3 2.3-2.3h44.1c1.3-6.2 7.4-10.3 13.6-9 4.5.9 8.1 4.5 9 9h12c1.3 0 2.3 1 2.3 2.3 0 1.3-1 2.3-2.3 2.3h-12c-1.3 6.2-7.4 10.2-13.6 8.9-4.5-.9-8-4.4-8.9-8.9h-44.1c-1.4.1-2.5-1-2.4-2.3-.1 0-.1 0 0 0zm50.7 0c0 3.8 3.1 6.9 6.9 6.9s6.9-3.1 6.9-6.9c0-3.8-3.1-6.9-6.9-6.9-3.8 0-6.9 3.1-6.9 6.9zm32.3 30.1c0 1.3-1 2.3-2.3 2.3H197c-1.3 6.2-7.3 10.3-13.6 9-4.5-.9-8.1-4.5-9-9h-23.3c-1.3.1-2.4-.9-2.5-2.2-.1-1.3.9-2.4 2.2-2.5h23.6c1.3-6.2 7.3-10.3 13.6-9 4.5.9 8.1 4.5 9 9h32.5c1.2.1 2.2 1.1 2.3 2.4zm-39.2 0c0-3.8-3.1-6.9-7-6.9s-6.9 3.1-6.9 7 3.1 6.9 7 6.9c3.8-.1 6.8-3.2 6.9-7z" class="st2"/><path id="i-lrg.i-mdm.i-sml-36" d="M231.1 1788.1l-28-28c11.3-13 9.8-32.7-3.2-44-13-11.3-32.7-9.8-44 3.2-11.3 13-9.8 32.7 3.2 44 5.7 4.9 12.9 7.6 20.4 7.6 7.6 0 14.9-2.8 20.5-7.8l28 28c.4.4.9.6 1.5.6s1.1-.2 1.5-.6c.9-.8.9-2.1.1-3zm-78.6-48.5c0-15 12.1-27.1 27.1-27.1 15 0 27.1 12.1 27.1 27.1s-12.1 27.1-27.1 27.1c-14.9 0-27.1-12.2-27.1-27.1z" class="st2"/><path id="i-lrg.i-mdm.i-sml-37" d="M231.1 1908.1l-28-28c11.3-13 9.8-32.7-3.2-44-13-11.3-32.7-9.8-44 3.2-11.3 13-9.8 32.7 3.2 44 5.7 4.9 12.9 7.6 20.4 7.6 7.6 0 14.9-2.8 20.5-7.8l28 28c.4.4.9.6 1.5.6s1.1-.2 1.5-.6c.9-.8.9-2.1.1-3zm-78.6-48.5c0-15 12.1-27.1 27.1-27.1 15 0 27.1 12.1 27.1 27.1s-12.1 27.1-27.1 27.1c-14.9 0-27.1-12.2-27.1-27.1z" class="st1"/><path id="i-lrg.i-mdm.i-sml-38" d="M194.2 2006.7h-2.1v-22.9c0-1.1-.9-2.1-2-2.1h-4.3c-1.2 0-2.1.9-2.1 2.1 0 1.2.9 2.1 2.1 2.1h2.1v20.8h-2.1c-1.2 0-2.1.9-2.1 2.1 0 1.2.9 2.1 2.1 2.1h8.3c1.1 0 2.1-.9 2.1-2v-.1c.1-1.1-.8-2-1.9-2.1h-.1zm-4.2-58.4c-23 0-41.7 18.7-41.7 41.7s18.7 41.7 41.7 41.7 41.7-18.7 41.7-41.7c0-23-18.7-41.6-41.7-41.7zm0 79.2c-20.7 0-37.5-16.8-37.5-37.5s16.8-37.5 37.5-37.5 37.5 16.8 37.5 37.5-16.8 37.5-37.5 37.5zm-1-52.6c1.7 0 3.1-1.4 3.1-3.1 0-1.7-1.4-3.1-3.1-3.1s-3.1 1.4-3.1 3.1c0 1.7 1.3 3.1 3 3.1h.1z" class="st2"/><path id="i-lrg.i-mdm.i-sml-39" d="M230.6 2121.7c-1.1 0-2.1.9-2.1 2v10.5c0 4.6-3.7 8.3-8.3 8.3h-58.4c-4.6 0-8.3-3.7-8.3-8.3v-10.4c0-1.2-.9-2.1-2.1-2.1-1.2 0-2.1.9-2.1 2.1v10.4c0 6.9 5.6 12.5 12.5 12.5h58.3c6.9 0 12.5-5.6 12.5-12.5v-10.4c.1-1.1-.8-2-1.9-2.1h-.1zm-41.1 11.8c.2.2.4.3.6.4.1 0 .1 0 .1.1.3.1.5.2.8.2.3 0 .6-.1.8-.2.1 0 .1 0 .1-.1.2-.1.4-.2.5-.4l13.5-14.6c.8-.8.7-2.1-.1-2.9-.8-.8-2.1-.7-2.9.1l-9.9 10.7v-44.7c0-1.2-.9-2.1-2.1-2.1-1.2 0-2.1.9-2.1 2.1v44.7l-9.8-10.7c-.8-.8-2.1-.9-2.9-.1-.8.8-.9 2.1-.1 2.9l13.5 14.6z" class="st2"/><path id="i-lrg.i-mdm.i-sml-40" d="M190 2224.8l-23.2 23.1c-2.6 2.5-6.7 2.5-9.3 0-2.5-2.5-2.6-6.6-.1-9.1l.1-.1 27.8-27.6c2.6-2.5 6.7-2.5 9.3 0l27.8 27.6c2.5 2.5 2.6 6.6 0 9.2-2.3 2.4-6.2 2.4-8.6.1-.3-.2-.5-.5-.7-.8l-23.1-22.4z" class="st2"/><path id="i-lrg.i-mdm.i-sml-41" d="M229.6 2325h-79.2c-1.2 0-2.1-1-2.1-2.1 0-1.2.9-2.1 2.1-2.1h79.2c1.1 0 2.1.9 2.1 2v.1c0 1.2-.9 2.1-2.1 2.1zm0 27.1h-79.2c-1.2 0-2.1-.9-2.1-2.1 0-1.2.9-2.1 2.1-2.1h79.2c1.1 0 2.1.9 2.1 2v.1c0 1.2-.9 2.1-2.1 2.1zm0 27.1h-79.2c-1.1 0-2.1-.9-2.1-2v-.1c0-1.2.9-2.1 2.1-2.1h79.2c1.1 0 2.1.9 2.1 2v.1c0 1.2-.9 2.1-2.1 2.1z" class="st2"/><path id="i-lrg.i-mdm.i-sml-2-4" d="M225.3 2489.6c-.6 0-1.1-.2-1.5-.6l-33.9-33.9L156 2489c-.7.9-2 1.1-2.9.4-.9-.7-1.1-2-.4-2.9.1-.1.2-.3.4-.4l35.4-35.4c.8-.8 2.1-.8 2.9 0l35.4 35.4c.8.8.8 2.1 0 2.9-.4.4-1 .7-1.5.6z" class="st2"/><path id="i-lrg.i-mdm.i-sml-2-5" d="M190 2610.8c-.6 0-1.1-.2-1.5-.6l-35.4-35.4c-.8-.8-.8-2.1 0-2.9.8-.8 2.1-.8 2.9 0l33.9 33.9 33.9-33.9c.8-.8 2.1-.8 2.9 0 .8.8.8 2.1 0 2.9l-35.4 35.4c-.2.4-.7.6-1.3.6z" class="st2"/><path id="i-lrg.i-mdm.i-sml-42" d="M172.3 2748.5c-1.1 0-2.1-.9-2.1-2.1 0-.6.2-1.1.6-1.5l33.9-33.9-33.9-33.9c-.8-.8-.8-2.1 0-2.9.8-.8 2.1-.8 2.9 0l35.4 35.4c.8.8.8 2.1 0 2.9l-35.4 35.4c-.3.4-.9.6-1.4.6z" class="st2"/><path d="M216.2 2871.7h-.1c-14.2-.5-30.9-14.3-42.3-25.9s-25.2-28.3-25.4-42.4c-.1-5.1 12.3-13.7 12.4-13.8 3.3-2.2 6.9-1.4 8.4.7 1 1.4 10.1 15.3 11.1 16.9 1.1 1.7.9 4.3-.4 6.8-.7 1.3-3.1 5.3-4.2 7.3 3.3 4.4 6.9 8.5 10.8 12.3 3.3 3.4 11 9 14 11.1l5.5-4.1c.1-.1.2-.1.3-.2 2.6-1.3 5-1.4 6.7-.4s15.7 10.4 16.9 11.3c2.1 1.5 2.9 5.1.5 8.4-1.8 2.4-3.7 4.6-5.8 6.7-4.8 4.6-7 5.3-8.4 5.3zm-51.3-79.2c-.6 0-1.3.2-1.8.6-3.7 2.5-10.3 8.5-10.6 10.3.1 7 4.4 19.5 24.2 39.5s32.4 24.4 39.5 24.6c1.7-.2 7.6-6.1 10.6-10.3 1-1.4.6-2.4.4-2.6-1.1-.8-15.1-10.1-16.6-11.1-.9-.1-1.7 0-2.5.5l-6.6 4.9c-.7.5-1.7.5-2.4 0-.5-.3-11.4-8-15.8-12.5-9.2-9.2-12-14-12.1-14.1-.4-.6-.4-1.5 0-2.1 0-.1 3.9-6.6 4.8-8.3.5-.7.7-1.7.6-2.5-1-1.6-10-15.4-10.9-16.6-.2-.2-.5-.3-.8-.3zM223.3 2916.7h-66.7c-4.6 0-8.3 3.7-8.3 8.3v41.7c0 4.6 3.7 8.3 8.3 8.3h31.2v4.2H169c-1.2 0-2.1.9-2.1 2.1s.9 2.1 2.1 2.1h41.7c1.2 0 2.1-.9 2.1-2.1s-.9-2.1-2.1-2.1h-18.8v-4.2h31.2c4.6 0 8.3-3.7 8.3-8.3V2925c.3-4.6-3.5-8.3-8.1-8.3zm-42.7 23.4c0-5.2 4.2-9.4 9.4-9.4s9.4 4.2 9.4 9.4-4.2 9.4-9.4 9.4-9.4-4.2-9.4-9.4zm9.5 13.8c9.9 0 15.1 8.8 16.8 16.9h-33.8c2.4-12.4 10.6-16.9 17-16.9zm37.4 12.8c0 2.3-1.9 4.2-4.2 4.2h-12.2c-1.9-11-7.6-16.9-13.6-19.5 6.2-4.2 7.8-12.6 3.7-18.8-4.2-6.2-12.6-7.8-18.8-3.7-6.2 4.2-7.8 12.6-3.7 18.8 1 1.4 2.2 2.7 3.7 3.7-2.2 1-4.2 2.3-5.9 3.9-3.9 3.7-6.6 9.1-7.8 15.6h-12.1c-2.3 0-4.2-1.9-4.2-4.2V2925c0-2.3 1.9-4.2 4.2-4.2h66.7c2.3 0 4.2 1.9 4.2 4.2v41.7z" class="st2"/></g><g id="weiß"><path id="i-lrg.i-mdm.i-sml-43" d="M320.3 71.8c11.3-5.7 15.8-19.5 10-30.8s-19.5-15.8-30.8-10-15.8 19.5-10 30.8c2.2 4.4 5.8 8 10.2 10.1-11.7 3.9-23.3 15.2-26.6 37.2-.2 1.2.6 2.3 1.8 2.4s2.3-.6 2.4-1.8c3.8-26.2 20.1-35.4 32.9-35.4 16.6 0 29.3 13.9 32.4 35.4.2 1 1.1 1.8 2.1 1.8h.3c1.1-.2 1.9-1.3 1.8-2.4-3.3-22.1-14.8-33.3-26.5-37.3zm-29.1-20.4c-.1-10.4 8.3-18.8 18.7-18.9 10.4-.1 18.8 8.3 18.9 18.7.1 10.4-8.3 18.8-18.7 18.9h-.1c-10.3 0-18.7-8.4-18.8-18.7z" class="st1"/><path id="i-lrg.i-mdm.i-sml-44" d="M316.2 207.2h-12.4c-1.2 0-2.1.9-2.1 2.1 0 1.2.9 2.1 2.1 2.1h12.5c1.1 0 2.1-.9 2.1-2v-.1c-.1-1.2-1-2.1-2.2-2.1zm27.1-45.9h-66.6c-4.6 0-8.3 3.7-8.3 8.3v41.7c0 4.6 3.7 8.3 8.3 8.3h66.7c4.6 0 8.3-3.7 8.3-8.3v-41.6c0-4.6-3.8-8.4-8.4-8.4zm4.2 50c0 2.3-1.9 4.2-4.2 4.2h-66.6c-2.3 0-4.2-1.9-4.2-4.2v-41.6c0-2.3 1.9-4.2 4.2-4.2h66.7c2.3 0 4.2 1.9 4.2 4.2v41.6h-.1z" class="st1"/><path id="i-lrg.i-mdm.i-sml-45" d="M276.7 288.3c.6 0 1.1-.2 1.5-.6 18-18.1 47.3-18.2 65.5-.2.8.8 2.1.8 2.9 0s.8-2.1 0-2.9c-19.8-19.7-51.7-19.6-71.4.1-.8.8-.8 2.1 0 2.9.4.5.9.7 1.5.7zM337 298c.8-.8.8-2.1 0-2.9-14.4-14.3-37.6-14.2-51.9.1-.8.8-.8 2.1 0 2.9.4.4.9.6 1.5.6s1.1-.2 1.5-.6c12.7-12.7 33.2-12.7 46-.1.8.8 2.1.8 2.9 0zm-41.7 7.4c-.8.8-.8 2.1 0 2.9.4.4.9.6 1.5.6s1.1-.2 1.5-.6c7-7 18.4-7.1 25.5-.1.8.8 2.1.8 2.9 0s.8-2.1 0-2.9c-8.7-8.6-22.7-8.6-31.4.1zm15.7 27.9c-2.4 0-4.4 2-4.4 4.4 0 2.4 2 4.4 4.4 4.4 2.4 0 4.4-2 4.4-4.4 0-2.4-2-4.4-4.4-4.4zm-.2 4.4c0-.1.1-.2.2-.2s.2.1.2.2-.1.2-.2.2-.2-.1-.2-.2zm32.8-16.6h-65.2c-5 0-9.1 4.1-9.1 9.1v14c0 5 4.1 9.1 9.1 9.1h65.2c5 0 9.1-4.1 9.1-9.1v-14c0-5-4-9.1-9.1-9.1zm4.9 23c0 2.7-2.2 4.9-4.9 4.9h-65.2c-2.7 0-4.9-2.2-4.9-4.9v-14c0-2.7 2.2-4.9 4.9-4.9h65.2c2.7 0 4.9 2.2 4.9 4.9v14z" class="st1"/><path id="i-lrg.i-mdm.i-sml-46" d="M319.2 428.7v12.9c0 1.2.9 2.1 2.1 2.1s2.1-.9 2.1-2.1v-4.4h3.3c1.2 0 2.1-.9 2.1-2.1s-.9-2.1-2.1-2.1h-3.3v-2.3h4.4c1.2 0 2.1-.9 2.1-2.1s-.9-2.1-2.1-2.1h-6.5c-1.2.1-2.1 1-2.1 2.2zm-5.4-.1c-2.9-2.6-7.1-2.1-7.5-2-1 .1-1.8 1-1.8 2.1v12.9c0 1 .8 1.9 1.8 2.1.4.1.9.1 1.3.1 2.3.1 4.5-.7 6.2-2.1 1.2-1 2.6-3 2.6-6.5.2-2.5-.8-4.9-2.6-6.6zm-2.8 9.9c-.7.6-1.5.9-2.4 1v-8.7c2.1.1 3.7 1.9 3.6 4v.4c.1 1.2-.3 2.4-1.2 3.3zm-15.3-11.9H292c-1.1 0-2.1.9-2.1 2v13c0 1.2.9 2.1 2.1 2.1s2.1-.9 2.1-2.1v-3.3h1.5c1.6.1 3.1-.5 4.3-1.5 1.2-1.2 1.8-2.8 1.7-4.4.1-1.6-.5-3.2-1.7-4.4-1.2-.9-2.7-1.4-4.2-1.4zm1.3 7.1c-.4.3-.8.4-1.3.4H294v-3.4h1.8c.4 0 .9.1 1.2.4.3.2.4.7.4 1.3s-.1 1.1-.4 1.3zm41.6-27.1c-.1-.2-.2-.5-.4-.7l-16.5-16.4c-.2-.2-.4-.3-.7-.4-.3-.1-.5-.2-.8-.2h-30.7c-4.5 0-8.2 3.7-8.2 8.2v65.7c0 4.5 3.7 8.2 8.2 8.2h41c4.5 0 8.2-3.7 8.2-8.2v-55.4c.1-.3 0-.6-.1-.8zM322.3 396l9.3 9.3h-9.3V396zm12.3 66.8c0 2.3-1.8 4.1-4.1 4.1h-41c-2.3 0-4.1-1.8-4.1-4.1v-65.6c0-2.3 1.8-4.1 4.1-4.1h28.7v14.3c0 1.1.9 2.1 2 2.1h14.4v53.3z" class="st1"/><path id="i-lrg.i-mdm.i-sml-47" d="M316.2 579.2h-12.5c-1.2 0-2.1.9-2.1 2.1 0 1.2.9 2.1 2.1 2.1h12.5c1.1 0 2.1-.9 2.1-2v-.1c0-1.2-.9-2.1-2.1-2.1zm10.4-70.9h-33.4c-4.6 0-8.3 3.7-8.3 8.3v66.7c0 4.6 3.7 8.3 8.3 8.3h33.3c4.6 0 8.3-3.7 8.3-8.3v-66.6c.1-4.5-3.5-8.3-8-8.4h-.2zm4.2 75c0 2.3-1.9 4.2-4.2 4.2h-33.4c-2.3 0-4.2-1.9-4.2-4.2v-66.6c0-2.3 1.9-4.2 4.2-4.2h33.3c2.3 0 4.2 1.9 4.2 4.2v66.6h.1z" class="st1"/><path id="i-lrg.i-mdm.i-sml-48" d="M293.3 663.8c0 1.1.9 2.1 2 2.1h29.3c1.2 0 2.1-.9 2.1-2.1 0-1.2-.9-2.1-2.1-2.1h-29.2c-1.2 0-2.1.9-2.1 2.1zm31.3 10.4h-29.2c-1.2 0-2.1.9-2.1 2.1 0 1.2.9 2.1 2.1 2.1h29.2c1.1 0 2.1-.9 2.1-2v-.1c0-1.2-.9-2.1-2.1-2.1zm0 12.5h-29.2c-1.2 0-2.1.9-2.1 2.1 0 1.2.9 2.1 2.1 2.1h29.2c1.1 0 2.1-.9 2.1-2v-.1c0-1.2-.9-2.1-2.1-2.1zm14-41.1l-16.7-16.7c-.4-.4-.9-.6-1.5-.6h-31.2c-4.6 0-8.3 3.7-8.3 8.3v66.7c0 4.6 3.7 8.3 8.3 8.3h41.7c4.6 0 8.3-3.7 8.3-8.3v-56.2c0-.6-.2-1.1-.6-1.5zm-16.1-10.2l9.6 9.6h-9.6v-9.6zm12.5 67.9c0 2.3-1.9 4.2-4.2 4.2h-41.6c-2.3 0-4.2-1.9-4.2-4.2v-66.6c0-2.3 1.9-4.2 4.2-4.2h29.2v14.6c0 1.1.9 2.1 2 2.1H335v54.1z" class="st1"/><path id="i-lrg.i-mdm.i-sml-49" d="M305.8 812c-4.6 0-8.3 3.7-8.3 8.3s3.7 8.3 8.3 8.3c4.6 0 8.3-3.7 8.3-8.3 0-4.6-3.7-8.3-8.3-8.3zm0 12.5c-2.3 0-4.2-1.9-4.2-4.2s1.9-4.2 4.2-4.2c2.3 0 4.2 1.9 4.2 4.2 0 2.3-1.9 4.2-4.2 4.2zm25-12.5c-4.6 0-8.3 3.7-8.3 8.3s3.7 8.3 8.3 8.3c4.6 0 8.3-3.7 8.3-8.3 0-4.6-3.7-8.3-8.3-8.3zm0 12.5c-2.3 0-4.2-1.9-4.2-4.2s1.9-4.2 4.2-4.2c2.3 0 4.2 1.9 4.2 4.2 0 2.3-1.9 4.2-4.2 4.2zm20.5-61.6c-.4-.5-1-.9-1.7-.9h-61.4l-2.3-6.9c-.3-.9-1.1-1.4-2-1.4h-13.5c-1.2 0-2.1.9-2.1 2.1 0 1.2.9 2.1 2.1 2.1h12l2.2 6.8c0 .1 0 .1.1.2l12.3 37.4c.3.9 1.1 1.4 2 1.4h38.5c.9 0 1.7-.6 2-1.4l12-37.5c.3-.6.2-1.4-.2-1.9zm-15.2 36.6h-35.5l-11-33.3h57.1l-10.6 33.3z" class="st1"/><path id="i-lrg.i-mdm.i-sml-50" d="M342.1 936.6c12.8-15.4 12.8-37.8 0-53.2v-.1c-.1-.1-.2-.1-.2-.2-7.2-8.4-17.3-13.6-28.3-14.6-.2 0-.4-.1-.6 0-1-.1-2-.2-3-.2s-2 .1-3 .2h-.6c-11 1-21.1 6.3-28.2 14.7l-.2.2v.1c-12.8 15.4-12.8 37.8 0 53.2 0 .1 0 .1.1.1 7.1 8.4 17.3 13.7 28.3 14.7.1 0 .3.1.4.1h.2c1 .1 2.1.2 3.1.2 1.1 0 2-.1 3.1-.2h.2c.1 0 .3 0 .4-.1 11-1 21.1-6.3 28.1-14.8.1 0 .1 0 .2-.1zm-29.7 10.8h-.3v-20.6c4.7.2 9.4 1.2 13.8 3-3.4 6.6-8 12.6-13.5 17.6zm-4.8 0c-5.5-5-10.1-11-13.5-17.6 4.4-1.8 9.1-2.8 13.8-3v20.6h-.3zm-35-35.3h12.5c.4 5.4 1.5 10.6 3.5 15.6-2.9 1.5-5.8 3.1-8.5 4.9-4.5-5.9-7.1-13.1-7.5-20.5zm7.5-24.7c2.7 1.8 5.5 3.5 8.4 4.9-2 5-3.2 10.2-3.5 15.6h-12.4c.4-7.4 3-14.6 7.5-20.5zm27.5-14.8h.4v20.6c-4.8-.2-9.5-1.2-14-3 3.4-6.7 8-12.6 13.6-17.6zm4.8 0c5.6 5 10.2 10.9 13.6 17.6-4.4 1.8-9.1 2.8-13.9 3.1v-20.7h.3zm35 35.3h-12.5c-.2-5.4-1.4-10.6-3.4-15.6 2.9-1.4 5.7-3.1 8.4-4.9 4.5 5.9 7.1 13.1 7.5 20.5zm-16.6 0h-18.7v-10.5c5.4-.3 10.6-1.4 15.6-3.4 1.8 4.4 2.8 9.1 3.1 13.9zm-22.9-10.5v10.5h-18.7c.2-4.8 1.3-9.5 3.1-13.9 5 2 10.2 3.1 15.6 3.4zm-18.7 14.7h18.7v10.5c-5.3.3-10.6 1.4-15.5 3.4a44 44 0 0 1-3.2-13.9zm22.9 10.5v-10.5h18.7a44 44 0 0 1-3.2 13.9c-4.9-2-10.2-3.1-15.5-3.4zm22.8-10.5h12.5c-.4 7.4-3 14.6-7.5 20.5-2.7-1.9-5.5-3.5-8.5-4.9 2.1-5 3.2-10.2 3.5-15.6zm2.3-27.9c-2.3 1.6-4.8 3-7.3 4.3-2.7-5.4-6.1-10.4-10.3-14.7 6.7 1.8 12.8 5.4 17.6 10.4zm-36.7-10.4c-4.1 4.4-7.6 9.3-10.3 14.7-2.6-1.3-5-2.7-7.4-4.3 4.8-5 10.9-8.6 17.7-10.4zm-17.7 62c2.4-1.6 4.9-3.1 7.5-4.3 2.7 5.4 6.2 10.4 10.3 14.8-6.8-1.8-13-5.4-17.8-10.5zm36.6 10.4c4.1-4.4 7.5-9.4 10.2-14.8 2.6 1.2 5.1 2.7 7.5 4.3-4.7 5.2-10.9 8.8-17.7 10.5z" class="st1"/><path id="i-lrg.i-mdm.i-sml-51" d="M310 1007c-8.6 0-11.9 6-12.5 9.3-.2 1.1.5 2.2 1.7 2.4s2.2-.5 2.4-1.7v-.1c0-.2 1.1-5.9 8.4-5.9 3-.1 5.7 1.8 6.8 4.6 1.2 2.8.8 6.1-1 7.8-2.1 2.2-3.9 4-5.2 5.2-1.7 1.7-2.7 4.1-2.7 6.5v4c0 1.2.9 2.1 2.1 2.1s2.1-.9 2.1-2.1v-4c0-1.3.5-2.6 1.5-3.5l5.3-5.3c2.9-3 3.7-8 1.8-12.4-1.8-4.2-6-7-10.7-6.9zm0-18.7c-23 0-41.7 18.7-41.7 41.7s18.7 41.7 41.7 41.7 41.7-18.7 41.7-41.7c0-23-18.7-41.7-41.7-41.7zm0 79.2c-20.7 0-37.5-16.8-37.5-37.5s16.8-37.5 37.5-37.5 37.5 16.8 37.5 37.5-16.8 37.5-37.5 37.5zm0-19.8c-1.7 0-3.1 1.4-3.1 3.1 0 1.7 1.4 3.1 3.1 3.1 1.7 0 3.1-1.4 3.1-3.1 0-1.7-1.4-3.1-3.1-3.1zm0 4.2c-.6 0-1-.4-1-1s.4-1 1-1c.5 0 1 .5 1 1 0 .6-.4 1-1 1z" class="st1"/><path id="i-lrg.i-mdm.i-sml-52" d="M298.8 1176.5h-.1v-11.1c0-1.1-.9-2.1-2-2.1H294.4c-1.2 0-2.1 1-2.1 2.1 0 1.2.9 2.1 2.1 2.1h.1v9h-.1c-1.2 0-2.1 1-2.1 2.1 0 1.2.9 2.1 2.1 2.1h4.4c1.2 0 2.1-.9 2.1-2.1 0-1.1-.9-2.1-2.1-2.1zm39.5-68.2h-31.6c-4.4 0-8 3.6-8 8v29.6c-.7-.1-1.4-.1-2.1-.1-12.6 0-22.9 10.2-22.9 22.9s10.2 22.9 22.9 22.9c4.7 0 9.4-1.5 13.2-4.2h28.4c4.4 0 8-3.6 8-8v-63.1c.1-4.4-3.4-7.9-7.8-8h-.1zm-29.8 75c-1.7 1.4-3.6 2.4-5.6 3.1-9.8 3.5-20.5-1.7-24-11.4s1.7-20.5 11.4-24c2-.7 4.1-1.1 6.3-1.1.7 0 1.4 0 2.1.1 1.4.2 2.8.5 4.2 1 9.8 3.5 14.9 14.3 11.4 24.1-1.1 3.2-3.2 6-5.8 8.2zm33.6-3.9c0 2.1-1.7 3.8-3.8 3.8h-23.9c.9-1.2 1.8-2.4 2.5-3.7h11.6c1.2 0 2.1-.9 2.1-2.1 0-1.2-.9-2.1-2.1-2.1h-9.8c.6-2.1 1-4.4 1-6.6 0-10.2-6.8-19.2-16.7-22v-30.4c0-2.1 1.7-3.8 3.8-3.8h31.5c2.1 0 3.8 1.7 3.8 3.8v63.1zm-46-17.6c1.4 0 2.6-1.2 2.6-2.6 0-1.4-1.2-2.6-2.6-2.6-1.4 0-2.6 1.2-2.6 2.6s1.1 2.6 2.6 2.6z" class="st1"/><path id="i-lrg.i-mdm.i-sml-53" d="M348.5 1269.1c-1-1.8-2.4-3.5-3.9-4.9-2.7-2.3-5.7-4.1-9-5.4.6-5.6-2.7-10.6-2.8-10.7-2-3.3-4.6-6.2-7.7-8.5-3.3-2.4-7-4.2-10.9-5.2-4.3-1.2-8.7-1.6-13.1-1.3-4.4.3-8.7 1.3-12.8 3-3.8 1.6-7.3 3.8-10.4 6.6-2.9 2.6-5.3 5.8-6.9 9.4-1.6 3.5-2.4 7.4-2.2 11.3.1 2.5.6 4.9 1.5 7.2.8 2.3 2 4.4 3.5 6.3 1.5 1.9 3.2 3.7 5.1 5.2 2 1.4 4.1 2.6 6.3 3.6-2 3.4-4.7 6.3-7.9 8.6-.8.5-1.1 1.4-.9 2.3.2.9.9 1.5 1.8 1.6 1 .1 2 .1 3 .1 1.9 0 3.9-.2 5.8-.5 2.1-.4 4.1-.9 6-1.7.1 0 2.3-.9 8.2-4.3 1.4 2 3.1 3.8 5.1 5.2 2.6 1.9 5.6 3.3 8.7 4.2 3.2.9 6.6 1.3 9.9 1.1 1 .7 2 1.3 3.1 1.9 1.6.8 3.2 1.5 4.9 2 2 .6 4 .9 6 1h1.2c1.9 0 3.8-.2 5.7-.6 1.1-.2 1.8-1.3 1.6-2.4-.1-.6-.5-1.1-1-1.4-1.6-1-4.8-3.5-5.7-5.7 1.3-.9 2.5-1.9 3.6-3 1.4-1.4 2.6-3 3.7-4.7 1-1.7 1.8-3.5 2.3-5.4 1.5-5 .8-10.4-1.8-14.9zm-56.9 23c-1.7.7-3.5 1.2-5.3 1.5l-2.1.3c2.4-2.4 4.3-5.3 5.7-8.4.4-1-.1-2.2-1.1-2.7-2.6-1.1-5-2.4-7.3-3.9-1.6-1.3-3.1-2.8-4.4-4.5-1.2-1.6-2.2-3.4-2.9-5.3-.7-1.9-1.1-3.9-1.2-5.9-.1-3.2.5-6.4 1.8-9.3 1.4-3.1 3.4-5.8 5.9-8 2.7-2.5 5.8-4.5 9.2-5.8 3.7-1.5 7.6-2.4 11.5-2.7 3.9-.3 7.9.1 11.7 1.2 3.5.9 6.7 2.5 9.6 4.6 2.7 1.9 5 4.4 6.6 7.3 1.3 2.2 2.1 4.7 2.2 7.3-2.7-.6-5.5-.8-8.3-.6-3.5.2-7 1-10.2 2.4-3 1.3-5.8 3.1-8.2 5.3-2.3 2.1-4.2 4.7-5.5 7.5-1.3 2.8-1.9 5.9-1.7 9 .1 2.4.6 4.7 1.6 6.8-2.4 1.5-5 2.8-7.6 3.9zm54.9-9.4c-.4 1.5-1 3-1.8 4.3-.9 1.4-1.9 2.7-3 3.9-1.2 1.2-2.6 2.3-4.1 3.2-.6.4-1 1.1-1 1.9.1 2.6 1.9 5 3.7 6.8h-1.1c-1.7-.1-3.4-.3-5-.8-1.4-.4-2.9-1-4.2-1.7-1.1-.6-2.2-1.2-3.2-1.9-.3-.3-.8-.4-1.2-.4h-.5c-3 .2-6.1-.1-9-.9-2.6-.7-5.2-1.9-7.4-3.5-2-1.5-3.7-3.4-5-5.5-1.2-2.1-1.9-4.5-2-6.9-.1-2.4.4-4.9 1.4-7.1 1.1-2.4 2.6-4.5 4.5-6.2 2.1-1.9 4.4-3.4 7-4.5 5.6-2.4 11.9-2.8 17.8-1.2l.8.2c.1 0 .1.1.2.1 3.1 1.2 5.9 2.8 8.4 4.9 1.2 1.1 2.2 2.4 3 3.9 2.1 3.4 2.7 7.5 1.7 11.4z" class="st1"/><path id="i-lrg.i-mdm.i-sml-54" d="M341.2 1368h-10.9c-1.4 0-2.6-.5-3.6-1.5l-5.9-5.2a9.19 9.19 0 0 0-6.7-2.5h-8.6c-2.5 0-5 1-6.8 2.7l-5 5.2c-.7.9-1.8 1.4-3 1.4H279c-5.6.1-10 4.6-10 10.2v37.3c0 5.5 4.4 9.9 9.9 9.9h62.3c5.4-.1 9.8-4.5 9.9-9.9v-37.5c-.1-5.5-4.4-9.9-9.9-10.1zm-39.6-3.6c1-1 2.4-1.5 3.8-1.5h8.6c1.4-.1 2.8.4 3.8 1.4l4.1 3.6h-23.7l3.4-3.5zm-22.5 7.7h50.4c.2 0 .5.1.7.1h10.9c1 0 2 .3 2.9.9l-26.1 18.3c-.9-.7-2-1.2-3.2-1.2h-8c-1.4 0-2.8.6-3.7 1.6l-26.9-18.8c.9-.5 1.9-.8 3-.9zm36.6 23.4v3.1c0 .6-.4 1-1 1h-8c-.6 0-1-.4-1-1v-3.1c0-.6.4-1 1-1h8c.5 0 1 .4 1 .9v.1zm31.1 20c0 3.1-2.6 5.7-5.7 5.7h-62.2c-3.1 0-5.7-2.6-5.7-5.7v-37.2c0-.7.1-1.4.4-2l27.4 19.3c.1.1.2.2.4.2v2.7c0 2.8 2.3 5.2 5.1 5.2h8.1c2.8 0 5.2-2.3 5.2-5.1v-3.5l26.7-18.8c.2.5.3 1.1.3 1.7v37.5z" class="st1"/><path id="i-lrg.i-mdm.i-sml-55" d="M313 1510l38-36c.8-.8.9-2.1.1-2.9-.8-.8-2.1-.9-2.9-.1l-38.2 36.1-38.2-36.1c-.8-.8-2.1-.7-2.9.1-.8.8-.7 2.1.1 2.9l38 36-38 36c-.8.8-.9 2.1-.1 2.9.4.4.9.7 1.5.7.5 0 1-.2 1.4-.6l38.2-36.1 38.2 36.1c.4.4.9.6 1.4.6.6 0 1.1-.2 1.5-.7.8-.8.8-2.1 0-2.8 0 0-.1 0-.1-.1l-38-36z" class="st1"/><path id="i-lrg.i-mdm.i-sml-56" d="M271.1 1602.6c-1.3.1-2.4-.9-2.5-2.2-.1-1.3.9-2.4 2.2-2.5H282.9c1.3-6.2 7.4-10.3 13.6-9 4.5.9 8.1 4.5 9 9h44c1.3 0 2.3 1 2.3 2.3 0 1.3-1 2.3-2.3 2.3h-44c-1.3 6.2-7.4 10.3-13.6 9-4.5-.9-8.1-4.5-9-9l-11.8.1zm16.1-2.3c.1 3.8 3.4 6.8 7.2 6.7 3.6-.1 6.5-3 6.7-6.7-.1-3.8-3.4-6.8-7.2-6.7-3.7.2-6.6 3.1-6.7 6.7zm-18.4 29.9c0-1.3 1-2.3 2.3-2.3h44.1c1.3-6.2 7.4-10.3 13.6-9 4.5.9 8.1 4.5 9 9h12c1.3 0 2.3 1 2.3 2.3 0 1.3-1 2.3-2.3 2.3h-12c-1.3 6.2-7.4 10.2-13.6 8.9-4.5-.9-8-4.4-8.9-8.9h-44.1c-1.4.1-2.5-1-2.4-2.3-.1 0-.1 0 0 0zm50.7 0c0 3.8 3.1 6.9 6.9 6.9s6.9-3.1 6.9-6.9c0-3.8-3.1-6.9-6.9-6.9-3.8 0-6.9 3.1-6.9 6.9zm32.3 30.1c0 1.3-1 2.3-2.3 2.3H317c-1.3 6.2-7.3 10.3-13.6 9-4.5-.9-8.1-4.5-9-9h-23.3c-1.3.1-2.4-.9-2.5-2.2-.1-1.3.9-2.4 2.2-2.5h23.6c1.3-6.2 7.3-10.3 13.6-9 4.5.9 8.1 4.5 9 9h32.5c1.2.1 2.2 1.1 2.3 2.4zm-39.2 0c0-3.8-3.1-6.9-7-6.9s-6.9 3.1-6.9 7c0 3.8 3.1 6.9 7 6.9 3.8-.1 6.8-3.2 6.9-7z" class="st1"/><path id="i-lrg.i-mdm.i-sml-57" d="M351.1 1788.1l-28-28c11.3-13 9.8-32.7-3.2-44-13-11.3-32.7-9.8-44 3.2-11.3 13-9.8 32.7 3.2 44 5.7 4.9 12.9 7.6 20.4 7.6 7.6 0 14.9-2.8 20.5-7.8l28 28c.4.4.9.6 1.5.6s1.1-.2 1.5-.6c.9-.8.9-2.1.1-3zm-78.6-48.5c0-15 12.1-27.1 27.1-27.1 15 0 27.1 12.1 27.1 27.1 0 15-12.1 27.1-27.1 27.1-14.9 0-27.1-12.2-27.1-27.1z" class="st1"/><path id="i-lrg.i-mdm.i-sml-58" d="M351.1 1908.1l-28-28c11.3-13 9.8-32.7-3.2-44-13-11.3-32.7-9.8-44 3.2-11.3 13-9.8 32.7 3.2 44 5.7 4.9 12.9 7.6 20.4 7.6 7.6 0 14.9-2.8 20.5-7.8l28 28c.4.4.9.6 1.5.6s1.1-.2 1.5-.6c.9-.8.9-2.1.1-3zm-78.6-48.5c0-15 12.1-27.1 27.1-27.1 15 0 27.1 12.1 27.1 27.1 0 15-12.1 27.1-27.1 27.1-14.9 0-27.1-12.2-27.1-27.1z" class="st1"/><path id="i-lrg.i-mdm.i-sml-59" d="M351.1 1788.1l-28-28c11.3-13 9.8-32.7-3.2-44-13-11.3-32.7-9.8-44 3.2-11.3 13-9.8 32.7 3.2 44 5.7 4.9 12.9 7.6 20.4 7.6 7.6 0 14.9-2.8 20.5-7.8l28 28c.4.4.9.6 1.5.6s1.1-.2 1.5-.6c.9-.8.9-2.1.1-3zm-78.6-48.5c0-15 12.1-27.1 27.1-27.1 15 0 27.1 12.1 27.1 27.1 0 15-12.1 27.1-27.1 27.1-14.9 0-27.1-12.2-27.1-27.1z" class="st1"/><path id="i-lrg.i-mdm.i-sml-60" d="M314.2 2006.7h-2.1v-22.9c0-1.1-.9-2.1-2-2.1h-4.3c-1.2 0-2.1.9-2.1 2.1 0 1.2.9 2.1 2.1 2.1h2.1v20.8h-2.1c-1.2 0-2.1.9-2.1 2.1 0 1.2.9 2.1 2.1 2.1h8.3c1.1 0 2.1-.9 2.1-2v-.1c.1-1.1-.8-2-1.9-2.1h-.1zm-4.2-58.4c-23 0-41.7 18.7-41.7 41.7 0 23 18.7 41.7 41.7 41.7s41.7-18.7 41.7-41.7c0-23-18.7-41.6-41.7-41.7zm0 79.2c-20.7 0-37.5-16.8-37.5-37.5s16.8-37.5 37.5-37.5 37.5 16.8 37.5 37.5-16.8 37.5-37.5 37.5zm-1-52.6c1.7 0 3.1-1.4 3.1-3.1 0-1.7-1.4-3.1-3.1-3.1-1.7 0-3.1 1.4-3.1 3.1 0 1.7 1.3 3.1 3 3.1h.1z" class="st1"/><path id="i-lrg.i-mdm.i-sml-61" d="M350.6 2121.7c-1.1 0-2.1.9-2.1 2v10.5c0 4.6-3.7 8.3-8.3 8.3h-58.4c-4.6 0-8.3-3.7-8.3-8.3v-10.4c0-1.2-.9-2.1-2.1-2.1s-2.1.9-2.1 2.1v10.4c0 6.9 5.6 12.5 12.5 12.5h58.3c6.9 0 12.5-5.6 12.5-12.5v-10.4c.1-1.1-.8-2-1.9-2.1h-.1zm-41.1 11.8c.2.2.4.3.6.4.1 0 .1 0 .1.1.3.1.5.2.8.2.3 0 .6-.1.8-.2.1 0 .1 0 .1-.1.2-.1.4-.2.5-.4l13.5-14.6c.8-.8.7-2.1-.1-2.9-.8-.8-2.1-.7-2.9.1l-9.9 10.7v-44.7c0-1.2-.9-2.1-2.1-2.1s-2.1.9-2.1 2.1v44.7l-9.8-10.7c-.8-.8-2.1-.9-2.9-.1-.8.8-.9 2.1-.1 2.9l13.5 14.6z" class="st1"/><path id="i-lrg.i-mdm.i-sml-62" d="M310 2224.8l-23.2 23.1c-2.6 2.5-6.7 2.5-9.3 0-2.5-2.5-2.6-6.6-.1-9.1l.1-.1 27.8-27.6c2.6-2.5 6.7-2.5 9.3 0l27.8 27.6c2.5 2.5 2.6 6.6 0 9.2-2.3 2.4-6.2 2.4-8.6.1-.3-.2-.5-.5-.7-.8l-23.1-22.4z" class="st1"/><path id="i-lrg.i-mdm.i-sml-63" d="M349.6 2325h-79.2c-1.2 0-2.1-1-2.1-2.1 0-1.2.9-2.1 2.1-2.1h79.2c1.1 0 2.1.9 2.1 2v.1c0 1.2-.9 2.1-2.1 2.1zm0 27.1h-79.2c-1.2 0-2.1-.9-2.1-2.1 0-1.2.9-2.1 2.1-2.1h79.2c1.1 0 2.1.9 2.1 2v.1c0 1.2-.9 2.1-2.1 2.1zm0 27.1h-79.2c-1.1 0-2.1-.9-2.1-2v-.1c0-1.2.9-2.1 2.1-2.1h79.2c1.1 0 2.1.9 2.1 2v.1c0 1.2-.9 2.1-2.1 2.1z" class="st1"/><path id="i-lrg.i-mdm.i-sml-2-6" d="M345.3 2489.6c-.6 0-1.1-.2-1.5-.6l-33.9-33.9L276 2489c-.7.9-2 1.1-2.9.4s-1.1-2-.4-2.9c.1-.1.2-.3.4-.4l35.4-35.4c.8-.8 2.1-.8 2.9 0l35.4 35.4c.8.8.8 2.1 0 2.9-.4.4-1 .7-1.5.6z" class="st1"/><path id="i-lrg.i-mdm.i-sml-2-7" d="M310 2610.8c-.6 0-1.1-.2-1.5-.6l-35.4-35.4c-.8-.8-.8-2.1 0-2.9s2.1-.8 2.9 0l33.9 33.9 33.9-33.9c.8-.8 2.1-.8 2.9 0s.8 2.1 0 2.9l-35.4 35.4c-.2.4-.7.6-1.3.6z" class="st1"/><path id="i-lrg.i-mdm.i-sml-64" d="M292.3 2748.5c-1.1 0-2.1-.9-2.1-2.1 0-.6.2-1.1.6-1.5l33.9-33.9-33.9-33.9c-.8-.8-.8-2.1 0-2.9s2.1-.8 2.9 0l35.4 35.4c.8.8.8 2.1 0 2.9l-35.4 35.4c-.3.4-.9.6-1.4.6z" class="st1"/><path d="M336.2 2871.7h-.1c-14.2-.5-30.9-14.3-42.4-25.9s-25.2-28.3-25.4-42.4c-.1-5.1 12.3-13.7 12.4-13.8 3.3-2.2 6.9-1.4 8.4.7 1 1.4 10.1 15.3 11.1 16.9 1.1 1.7.9 4.3-.5 6.8-.7 1.3-3.1 5.3-4.2 7.3 3.3 4.4 6.9 8.5 10.8 12.3 3.3 3.4 11 9 14 11.1l5.5-4.1c.1-.1.2-.1.3-.2 2.6-1.3 5-1.4 6.7-.4s15.7 10.4 16.9 11.3c2.1 1.5 2.9 5.1.5 8.4-1.8 2.4-3.7 4.6-5.8 6.7-4.6 4.6-6.8 5.3-8.2 5.3zm-51.3-79.2c-.6 0-1.3.2-1.8.6-3.7 2.5-10.3 8.5-10.6 10.3.1 7 4.4 19.5 24.2 39.5s32.4 24.4 39.5 24.6c1.7-.2 7.6-6.1 10.6-10.3 1-1.4.6-2.4.4-2.6-1.1-.8-15.1-10.1-16.6-11.1-.9-.1-1.7 0-2.5.5l-6.6 4.9c-.7.5-1.7.5-2.4 0-.5-.3-11.4-8-15.8-12.5-9.2-9.2-12-14-12.1-14.1-.4-.6-.4-1.5 0-2.1 0-.1 3.9-6.6 4.8-8.3.5-.7.7-1.7.6-2.5-1-1.6-10-15.4-10.9-16.6-.2-.2-.5-.3-.8-.3zM343.3 2916.7h-66.7c-4.6 0-8.3 3.7-8.3 8.3v41.7c0 4.6 3.7 8.3 8.3 8.3h31.2v4.2H289c-1.2 0-2.1.9-2.1 2.1s.9 2.1 2.1 2.1h41.7c1.2 0 2.1-.9 2.1-2.1s-.9-2.1-2.1-2.1h-18.8v-4.2h31.2c4.6 0 8.3-3.7 8.3-8.3V2925c.3-4.6-3.5-8.3-8.1-8.3zm-42.7 23.4c0-5.2 4.2-9.4 9.4-9.4s9.4 4.2 9.4 9.4-4.2 9.4-9.4 9.4-9.4-4.2-9.4-9.4zm9.5 13.8c9.9 0 15.1 8.8 16.8 16.9h-33.8c2.4-12.4 10.6-16.9 17-16.9zm37.4 12.8c0 2.3-1.9 4.2-4.2 4.2h-12.2c-1.9-11-7.6-16.9-13.6-19.5 6.2-4.2 7.8-12.6 3.7-18.8s-12.6-7.8-18.8-3.7c-6.2 4.2-7.8 12.6-3.7 18.8 1 1.4 2.2 2.7 3.7 3.7-2.2 1-4.2 2.3-5.9 3.9-3.9 3.7-6.6 9.1-7.8 15.6h-12.1c-2.3 0-4.2-1.9-4.2-4.2V2925c0-2.3 1.9-4.2 4.2-4.2h66.7c2.3 0 4.2 1.9 4.2 4.2v41.7z" class="st1"/></g><g id="social"><path id="i-lrg.i-mdm.i-sml-65" d="M434.2 2006.7h-2.1v-22.9c0-1.1-.9-2.1-2-2.1h-4.3c-1.2 0-2.1.9-2.1 2.1 0 1.2.9 2.1 2.1 2.1h2.1v20.8h-2.1c-1.2 0-2.1.9-2.1 2.1 0 1.2.9 2.1 2.1 2.1h8.3c1.1 0 2.1-.9 2.1-2v-.1c.1-1.1-.8-2-1.9-2.1h-.1zm-4.2-58.4c-23 0-41.7 18.7-41.7 41.7 0 23 18.7 41.7 41.7 41.7s41.7-18.7 41.7-41.7c0-23-18.7-41.6-41.7-41.7zm0 79.2c-20.7 0-37.5-16.8-37.5-37.5s16.8-37.5 37.5-37.5 37.5 16.8 37.5 37.5-16.8 37.5-37.5 37.5zm-1-52.6c1.7 0 3.1-1.4 3.1-3.1 0-1.7-1.4-3.1-3.1-3.1-1.7 0-3.1 1.4-3.1 3.1 0 1.7 1.3 3.1 3 3.1h.1z" class="st3"/><g id="fb"><circle cx="430" cy="430.1" r="50" class="st1"/><path d="M433.8 464.5v-31.9h10.8l1.6-12.4h-12.4v-7.9c0-3.6 1-6.1 6.2-6.1h6.6V395c-3.2-.3-6.5-.5-9.7-.5-9.6 0-16.1 5.8-16.1 16.5v9.2H410v12.4h10.8v31.9h13z" class="st4"/></g><g id="yt"><circle cx="430" cy="550.1" r="50" class="st1"/><path d="M410.6 517.1l-1.3-3.6h4.1l2.8 10.3 2.7-10.3h4l-4.7 15.5v10.6h-3.9V529c-.6-2.8-1.4-5.6-2.4-8.3-.3-.8-.7-2-1.3-3.6zm28.2 22.8c1.3 0 2.6-.8 4-2.4v2.1h3.5v-19.5h-3.5V535c-.8 1.1-1.5 1.6-2.2 1.6-.5 0-.8-.3-.8-.8-.1-.5-.1-.9 0-1.4v-14.3h-3.5v15.4c0 1 .1 2 .3 2.9.3 1 1.3 1.6 2.2 1.5zm-14.8-2c-.8-1.4-1.2-3-1.1-4.6v-6.8c-.1-1.6.3-3.2 1.1-4.6.9-1.3 2.5-2.1 4.1-2 1.6 0 3.1.7 4.1 2 .8 1.4 1.2 3 1.1 4.6v6.8c.1 1.6-.3 3.2-1.1 4.6-1 1.3-2.5 2-4.1 2-1.6.1-3.1-.7-4.1-2zm2.5-3.9c0 1.8.6 2.7 1.7 2.7s1.7-.9 1.7-2.7v-8.2c0-1.8-.6-2.7-1.7-2.7s-1.7.9-1.7 2.7v8.2zM450.1 562.1v1.8h-3.5v-1.8c0-1.8.6-2.7 1.7-2.7s1.8.9 1.8 2.7zm7.8 1.2c0 6.2-.3 10.7-1 13.7-.3 1.5-1.1 2.8-2.2 3.8s-2.5 1.7-4 1.8c-4.8.5-12 .8-21.7.8s-16.9-.3-21.7-.8c-1.5-.2-2.9-.8-4-1.8s-1.9-2.4-2.2-3.8c-.7-2.9-1-7.5-1-13.7-.1-4.6.2-9.2 1-13.7.3-1.5 1.1-2.8 2.2-3.9 1.1-1 2.5-1.7 4-1.8 7.2-.6 14.4-.9 21.6-.8 7.2-.1 14.5.2 21.7.8 1.5.2 2.9.8 4 1.8s1.9 2.4 2.3 3.9c.6 2.9 1 7.5 1 13.7zm-41.4-13.4h-12.2v3.7h4.1v22.3h3.9v-22.3h4.2v-3.7zm10.6 6.6h-3.5v14.7c-.8 1.1-1.5 1.6-2.2 1.6-.5 0-.8-.3-.8-.8-.1-.5-.1-.9 0-1.4v-14.2H417v15.3c0 1 .1 1.9.3 2.8.3 1 1.2 1.6 2.2 1.5 1.3 0 2.6-.8 4-2.4v2.1h3.5v-19.2zm13.3 5.9c.1-1.3-.1-2.6-.4-3.9-.2-1.3-1.4-2.3-2.8-2.2-1.5.1-2.8.9-3.6 2.1v-8.5h-3.5v26h3.5V574c1.2 1.4 2.4 2.2 3.6 2.2 1.4.1 2.5-.9 2.8-2.2.3-1.3.4-2.5.4-3.8v-7.8zm13.2.4c.1-1.6-.3-3.2-1.1-4.5-.9-1.3-2.5-2.1-4.1-2-1.6-.1-3.2.7-4.2 2-.8 1.4-1.2 2.9-1 4.5v6.8c-.1 1.6.3 3.2 1.1 4.5 1 1.3 2.6 2.1 4.3 2 1.7.1 3.3-.7 4.2-2.1.4-.6.7-1.4.8-2.1.1-.8.1-1.5.1-2.3v-.5H450v2.4c-.1.8-.8 1.4-1.6 1.4-1.2 0-1.8-.9-1.8-2.7v-3.4h7v-4zm-18.2-3.4c-.7 0-1.3.3-1.7.8V572c.4.5 1.1.8 1.7.8 1 0 1.5-.9 1.5-2.6V562c0-1.7-.5-2.6-1.5-2.6z" class="st4"/></g><g id="g_"><circle cx="430" cy="670.1" r="50" class="st1"/><path d="M396.7 673.5c-.5-12 10.1-23.1 22.1-23.3 6.1-.4 12.1 1.7 16.7 5.7-1.9 2.1-3.8 4.2-5.9 6.1-4.1-2.5-9-4.4-13.8-2.7-7.7 2.2-12.4 11.3-9.5 18.8 2.4 7.9 11.9 12.2 19.4 8.9 3.9-1.4 6.4-5 7.6-8.8-4.5-.1-8.9 0-13.4-.2v-7.9h22.3c.5 6.5-.5 13.4-4.7 18.6-5.8 7.4-16.4 9.6-25.1 6.7-9.4-3.2-15.7-12-15.7-21.9zM456.7 663.5h6.6v6.7h6.6v6.6h-6.6v6.7h-6.6v-6.7H450v-6.6h6.6c0-2.3.1-4.5.1-6.7z" class="st4"/></g><g id="tw"><circle cx="430" cy="790.1" r="50" class="st1"/><path d="M462.3 769.8c-2.5 1.1-5.1 1.8-7.7 2.1 2.8-1.7 4.9-4.3 5.9-7.5-2.6 1.6-5.5 2.7-8.5 3.3-5.1-5.4-13.6-5.7-19.1-.6-3.5 3.3-5 8.2-3.9 12.9-10.8-.5-20.9-5.7-27.8-14.1-3.6 6.2-1.8 14 4.2 18-2.1-.1-4.2-.6-6.1-1.7v.2c0 6.4 4.5 11.9 10.8 13.2-1.2.3-2.4.5-3.5.5-.8 0-1.7-.1-2.5-.2 1.8 5.5 6.8 9.2 12.6 9.3-5.6 4.4-12.8 6.4-19.9 5.6 6.2 3.9 13.3 6 20.6 6 24.8 0 38.3-20.5 38.3-38.3v-1.8c2.6-1.9 4.8-4.2 6.6-6.9z" class="st4"/></g><g id="xing"><circle cx="430" cy="910.1" r="50" class="st1"/><path d="M444.1 901.8l9.6-16.9c.5-.9.5-1.4-.4-2h-8.8c-.7.3-1.3.8-1.7 1.5l-5.7 10.1-6.4 11.3c-1.7 3-3.4 6.1-5.2 9.1-.2.3-.2.6 0 .8.9 1.6 1.7 3.1 2.6 4.7 2.7 4.9 5.4 9.9 8.1 14.8.4.9 1.1 1.7 2.1 2h8.8c.8-.5 1-1 .5-1.8-1.2-2.2-2.4-4.3-3.6-6.5-2.4-4.4-4.8-8.7-7.2-13.1-.2-.3-.2-.7 0-1.1 2.3-4.2 4.8-8.5 7.3-12.9zM423.4 904.2c-.3-.6-.7-1.2-1-1.8-1.4-2.4-2.8-4.8-4.1-7.2-.5-1-1.6-1.6-2.8-1.5h-7.6c-.6 0-1 .5-1 1 0 .2 0 .3.1.5s.2.4.3.5c1.6 2.8 3.3 5.6 4.9 8.4.2.3.2.7 0 1-.5.9-1 1.8-1.6 2.7-2.2 3.8-4.3 7.6-6.5 11.4-.6 1.1-.1 1.9 1.2 1.9h7c1.2.1 2.4-.6 2.9-1.7 1-1.8 2.1-3.7 3.1-5.5l5.1-9c.1-.3.1-.5 0-.7z" class="st4"/></g><g id="i-xxsml.i-xsml"><circle cx="430" cy="1030.1" r="50" class="st1"/><path d="M444.3 1018.2c-4-.2-7.7 1.9-9.7 5.3v-4.6H424c.1 3 0 32.2 0 32.2h10.7v-18c0-.9.1-1.8.4-2.6.8-2.3 3-3.9 5.5-3.9 3.9 0 5.4 3 5.4 7.3v17.2h10.7v-18.5c0-9.8-5.3-14.4-12.4-14.4zm-9.6 5.5v-.1.1zM407.3 1019H418v32.2h-10.7zM412.7 1003.5c-3.7 0-6.1 2.4-6.1 5.6 0 3.1 2.5 5.6 5.5 5.6h.5c3.7 0 6.1-2.5 6.1-5.6s-2.3-5.6-6-5.6z" class="st4"/></g><g id="i-xxsml.i-xsml-2"><circle cx="430" cy="1150.1" r="50" class="st1"/><path d="M455.1 1145.9l-.6.2v-.9-15.8c.1-2.9-2.2-5.3-5.1-5.3h-38.6c-1.9 0-3.7 1.2-4.4 3-.3.8-.4 1.6-.4 2.5v16.5l-.9-.2c-1.3-.2-2 .6-1.7 1.8l.6 1.5c1.9 3.5 4.7 6.3 8.2 8.2.4.2.7.7.5 1.1v.1c-.8 2.7-1 5.5-.7 8.3.7 4.6 3.7 8.8 9.1 9.4 3.3.4 6.1-1.2 6.9-4.2.2-.7.3-1.5.2-2.3v-8-.8h.3l.4.1c.5.1 1.1.3 1.7.3l1.3.2s-.1 3.1-.1 3.8v5.6c0 2.5 1.8 4.7 4.2 5.2 3.1.8 6.3-.1 8.6-2.4 3.3-3.2 4-7.2 3.4-11.5-.2-1.4-.5-2.9-.8-4.4l1-.6c3.4-1.9 6.2-4.8 8-8.3.3-.5.4-1.1.5-1.6.1-.6-.3-1.2-.9-1.4-.3-.2-.5-.2-.7-.1zm-4.6 3.9l-.1.1c-3.6 2.3-7.7 3.4-11.9 3.1-1 0-1.9-.1-2.9 0-1.6-.2-3.1 1-3.3 2.7v1.5c-.3-.2-.9-.5-1.2-.7-.8-.5-1.5-1.1-2.1-1.8-1.2-1.2-2.9-1.9-4.6-1.7-3.3.4-6.7 0-9.9-1.1-1.4-.6-2.8-1.3-4.1-2l-.1-.1v-1.3-17.8c0-1.8.9-2.6 2.7-2.6h35c1.7 0 2.5.7 2.5 2.4v19.3z" class="st4"/><path d="M421.5 1137.7c-3.5 0-6.2 2.9-6.2 6.3s2.9 6.2 6.3 6.2 6.2-2.8 6.2-6.3c-.1-3.4-2.9-6.2-6.3-6.2zM438.6 1137.7c-3.5-.1-6.3 2.7-6.4 6.2s2.7 6.3 6.2 6.4c3.4.1 6.3-2.6 6.4-6v-.2c0-3.5-2.7-6.4-6.2-6.4z" class="st4"/></g><g id="i-xxsml.i-xsml-3"><circle cx="430" cy="1270.1" r="50" class="st1"/><path d="M451.5 1245.3h-22.8c-3.4 0-6.2 2.7-6.2 6.1v3c-.4-.1-.9-.1-1.4-.1-6.5 0-11.8 5.2-11.9 11.8 0 3.9 1.9 7.5 5.1 9.6-7.3 2.7-12.1 9.8-12.1 17.6h3.2c-.1-8.4 6.6-15.3 15-15.5H421.3c8.2.5 14.5 7.3 14.4 15.5h3.2c0-7.6-4.5-14.4-11.5-17.3 1.2-.7 2.2-1.7 3.1-2.8h3l5.4 5.6 5.6-5.6h7c3.4 0 6.2-2.7 6.2-6.1v-15.6c0-3.5-2.7-6.2-6.2-6.2.1 0 .1 0 0 0zm-30.2 29.4H420.4c-4.8-.2-8.4-4.3-8.2-9.1.2-4.8 4.3-8.4 9.1-8.2s8.4 4.3 8.2 9.1c-.2 4.4-3.7 7.9-8.2 8.2zm33.2-7.6c0 1.6-1.3 2.9-3 2.9h-8.3l-4.2 4.2-4.1-4.2h-2.6c.5-1.3.7-2.6.7-3.9 0-4.8-2.9-9-7.3-10.8v-3.8c0-1.6 1.3-2.9 3-2.9h22.8c1.6 0 2.9 1.3 3 2.9v15.6z" class="st4"/><path d="M448.2 1253.7h-12.8c-.9 0-1.6.7-1.6 1.6s.7 1.6 1.6 1.6h12.8c.9 0 1.6-.7 1.6-1.6s-.7-1.6-1.6-1.6zM448.2 1260.1h-9.6c-.9 0-1.6.7-1.6 1.6s.7 1.6 1.6 1.6h9.6c.9 0 1.6-.7 1.6-1.6s-.7-1.6-1.6-1.6z" class="st4"/></g><g id="_Gruppe_2"><circle id="_Pfad_2" cx="430" cy="310" r="50" class="st2"/><path id="_Pfad_3" d="M430.4 337.8c-13.7 0-28-11.7-28.1-30.5 0-12.5 6.7-24.4 15.3-31.5 8.4-6.9 19.9-11.4 30.2-11.4 1.2 0 2.4.1 3.6.4-9.4 2.1-16.2 10.4-16.3 20 0 .3 0 .5.1.8 15.2 3.7 22.1 12.9 22.2 25.6-.1 14.7-12.1 26.6-27 26.6.1 0 0 0 0 0z" class="st1"/></g><path d="M430.3 217.8c-13.7 0-28-11.7-28.2-30.5 0-12.5 6.7-24.5 15.3-31.5 8.6-7.1 19.2-11.1 30.3-11.5 1.2 0 2.5.1 3.7.3-9.4 2-16.2 10.3-16.3 20v.8c15.2 3.7 22.2 12.8 22.2 25.7-.1 14.8-12.1 26.7-26.9 26.7h-.1z" class="st1"/><path d="M430.3 97.8c-13.7 0-28-11.7-28.2-30.5 0-12.5 6.7-24.5 15.3-31.5 8.6-7.1 19.2-11.1 30.3-11.5 1.2 0 2.5.1 3.7.3-9.4 2-16.2 10.3-16.3 20v.8c15.2 3.7 22.2 12.8 22.2 25.7-.1 14.8-12.1 26.7-26.9 26.7h-.1z"/></g></svg>